<?xml version="1.0" standalone="no"?>
<!DOCTYPE svg PUBLIC "-//W3C//DTD SVG 20010904//EN"
 "http://www.w3.org/TR/2001/REC-SVG-20010904/DTD/svg10.dtd">
<svg version="1.0" xmlns="http://www.w3.org/2000/svg"
 width="1000.000000pt" height="1187.000000pt" viewBox="0 0 1000.000000 1187.000000"
 preserveAspectRatio="xMidYMid meet">
<metadata>
Created by potrace 1.16, written by Peter Selinger 2001-2019
</metadata>
<g transform="translate(0.000000,1187.000000) scale(0.100000,-0.100000)"
fill="#000000" stroke="none">
<path d="M7285 11854 c-313 -48 -694 -195 -1011 -389 -561 -343 -1006 -930
-1189 -1565 -47 -165 -74 -317 -84 -485 -9 -141 -1 -338 13 -352 4 -4 73 -7
154 -6 435 3 863 170 1262 491 133 108 358 335 471 477 337 421 522 837 584
1308 15 117 21 469 9 515 -6 20 -12 22 -63 21 -31 -1 -96 -7 -146 -15z"/>
<path d="M7015 9050 c-271 -34 -534 -98 -855 -208 -940 -323 -993 -338 -1113
-329 -133 10 -325 67 -777 229 -657 236 -923 295 -1285 285 -427 -13 -820
-113 -1206 -308 -611 -309 -1063 -769 -1385 -1412 -194 -386 -308 -784 -370
-1287 -22 -178 -31 -742 -15 -951 92 -1235 562 -2549 1269 -3554 677 -962
1161 -1393 1684 -1499 101 -21 341 -21 468 -1 195 32 443 108 775 238 228 89
439 149 671 189 110 19 164 22 369 22 203 0 259 -4 360 -22 237 -44 432 -102
720 -215 649 -254 1058 -282 1486 -102 208 87 399 224 625 450 210 208 397
437 656 800 360 505 615 986 832 1567 94 250 95 225 -10 272 -267 121 -527
302 -773 541 -499 484 -754 1066 -778 1775 -24 723 203 1331 682 1829 150 156
335 307 539 440 l106 68 -32 44 c-509 708 -1369 1127 -2348 1144 -124 2 -256
0 -295 -5z"/>
</g>
</svg>
