<?xml version="1.0" standalone="no"?>
<!DOCTYPE svg PUBLIC "-//W3C//DTD SVG 20010904//EN"
 "http://www.w3.org/TR/2001/REC-SVG-20010904/DTD/svg10.dtd">
<svg version="1.0" xmlns="http://www.w3.org/2000/svg"
 width="954.000000pt" height="980.000000pt" viewBox="0 0 954.000000 980.000000"
 preserveAspectRatio="xMidYMid meet">
<metadata>
Created by potrace 1.16, written by Peter Selinger 2001-2019
</metadata>
<g transform="translate(0.000000,980.000000) scale(0.100000,-0.100000)"
fill="#000000" stroke="none">
<path d="M3501 9789 c-548 -31 -1023 -148 -1431 -353 -456 -230 -795 -520
-1041 -889 -417 -629 -498 -1364 -220 -2009 154 -360 413 -669 736 -881 266
-174 621 -294 970 -328 116 -11 462 -7 597 7 l57 6 -40 -98 c-75 -183 -100
-345 -80 -514 28 -233 102 -395 298 -653 46 -61 69 -99 61 -101 -7 -2 -116
-11 -243 -21 -1199 -87 -1986 -347 -2549 -840 -284 -250 -497 -612 -577 -983
-30 -141 -37 -383 -14 -527 120 -772 824 -1347 1875 -1534 647 -115 1448 -87
2072 73 1185 304 1980 1064 2114 2022 20 144 15 452 -10 582 -76 406 -236 692
-581 1038 -197 198 -359 338 -713 613 -150 117 -304 243 -341 280 -125 121
-187 245 -198 397 -17 238 119 466 427 717 199 162 308 257 414 363 379 378
557 778 582 1304 24 502 -130 977 -446 1375 -78 97 -267 287 -374 375 l-79 65
400 5 399 5 343 215 c359 226 374 238 336 280 -18 20 -39 20 -1314 18 -713 0
-1356 -4 -1430 -9z m-446 -479 c192 -22 358 -83 525 -195 487 -324 851 -1036
951 -1860 19 -154 16 -459 -5 -590 -20 -125 -69 -282 -116 -376 -153 -302
-465 -520 -849 -593 -108 -21 -314 -21 -421 0 -390 74 -732 349 -982 791 -331
586 -473 1394 -338 1928 54 215 137 379 263 520 202 226 527 374 842 384 22 0
81 -4 130 -9z m705 -5697 l93 -6 181 -130 c896 -642 1160 -957 1208 -1438 23
-229 -19 -472 -116 -674 -219 -455 -708 -737 -1408 -811 -191 -20 -649 -14
-828 10 -355 50 -618 125 -875 251 -370 181 -617 415 -761 719 -138 292 -162
658 -63 966 144 448 608 811 1239 970 396 101 1007 166 1330 143z"/>
<path d="M7636 6484 c-14 -14 -16 -86 -16 -640 l0 -624 -625 0 -625 0 -15 -24
c-14 -21 -15 -63 -13 -304 2 -214 6 -284 16 -294 10 -10 142 -14 637 -16 l625
-2 0 -625 c0 -554 2 -625 16 -639 13 -14 55 -16 299 -16 244 0 286 2 299 16
14 14 16 85 16 639 l0 625 625 2 c584 3 625 4 642 21 16 16 18 42 18 301 0
225 -3 286 -14 299 -12 16 -70 17 -642 17 l-629 0 0 630 c0 612 -1 630 -19
640 -12 6 -126 10 -300 10 -241 0 -282 -2 -295 -16z"/>
</g>
</svg>
