<?xml version="1.0" standalone="no"?>
<!DOCTYPE svg PUBLIC "-//W3C//DTD SVG 20010904//EN"
 "http://www.w3.org/TR/2001/REC-SVG-20010904/DTD/svg10.dtd">
<svg version="1.0" xmlns="http://www.w3.org/2000/svg"
 width="512.000000pt" height="512.000000pt" viewBox="0 0 512.000000 512.000000"
 preserveAspectRatio="xMidYMid meet">

<g transform="translate(0.000000,512.000000) scale(0.100000,-0.100000)"
fill="#000000" stroke="none">
<path d="M2330 5110 c-494 -48 -950 -230 -1350 -538 -195 -150 -448 -432 -594
-662 -63 -99 -186 -351 -230 -471 -49 -134 -102 -340 -128 -499 -31 -195 -31
-565 0 -760 45 -276 116 -498 237 -745 132 -269 269 -460 489 -681 221 -220
412 -357 681 -489 247 -121 469 -192 745 -237 195 -31 565 -31 760 0 276 45
498 116 745 237 269 132 460 269 681 489 220 221 357 412 489 681 88 179 132
296 180 476 63 240 78 371 78 649 0 278 -15 409 -78 649 -48 180 -92 297 -180
476 -132 269 -269 460 -489 681 -221 220 -412 357 -681 489 -246 121 -474 193
-740 235 -147 23 -475 34 -615 20z m575 -1485 c28 -13 66 -41 86 -62 61 -63
689 -805 717 -846 58 -86 58 -228 0 -314 -28 -41 -656 -783 -716 -846 -56 -58
-123 -87 -202 -87 -123 0 -208 49 -265 151 -26 48 -30 64 -30 134 1 109 15
135 190 340 l145 170 -628 5 -627 5 -51 27 c-53 28 -101 76 -131 131 -25 46
-25 208 0 254 30 55 78 103 131 131 l51 27 627 5 628 5 -145 170 c-156 184
-185 230 -192 315 -7 69 8 125 50 186 42 63 103 105 174 119 73 15 125 9 188
-20z"/>
</g>
</svg>
