<?xml version="1.0" standalone="no"?>
<!DOCTYPE svg PUBLIC "-//W3C//DTD SVG 20010904//EN"
 "http://www.w3.org/TR/2001/REC-SVG-20010904/DTD/svg10.dtd">
<svg version="1.0" xmlns="http://www.w3.org/2000/svg"
 width="1280.000000pt" height="1280.000000pt" viewBox="0 0 1280.000000 1280.000000"
 preserveAspectRatio="xMidYMid meet">

<g transform="translate(0.000000,1280.000000) scale(0.100000,-0.100000)"
fill="#000000" stroke="none">
<path d="M5938 12660 c-351 -42 -639 -299 -725 -646 -25 -103 -22 -296 6 -399
81 -299 311 -529 606 -606 113 -30 299 -30 410 0 378 101 633 427 635 811 1
338 -199 642 -510 777 -125 54 -290 78 -422 63z m442 -327 l0 -26 25 23 c34
32 55 14 55 -50 0 -54 -20 -81 -44 -61 -11 9 -16 9 -22 0 -5 -9 -11 -7 -21 7
-9 13 -16 15 -21 8 -10 -17 -69 -27 -77 -14 -3 5 -11 8 -16 4 -5 -3 -16 0 -24
6 -9 7 -15 8 -15 2 0 -13 -55 -21 -74 -10 -8 5 -17 5 -20 0 -9 -14 -107 -7
-117 9 -6 10 -11 11 -16 3 -10 -15 -111 -25 -119 -13 -3 6 -11 6 -17 1 -7 -5
-25 -8 -42 -8 l-30 1 0 65 0 65 70 1 c84 1 105 -3 105 -22 0 -21 17 -17 23 6
8 31 27 24 34 -12 l7 -33 6 30 c5 30 6 30 70 30 36 1 75 -5 87 -12 18 -10 22
-10 27 3 8 22 24 9 35 -29 9 -31 9 -31 10 -5 1 37 36 56 61 33 17 -15 19 -15
25 4 9 31 35 26 35 -6z m-715 -133 l0 -135 -25 0 c-25 0 -25 1 -28 93 -2 73
-6 92 -17 92 -20 0 -19 40 1 68 11 16 24 22 42 20 l27 -3 0 -135z m167 -27
c10 -9 19 -23 19 -32 1 -9 4 -3 8 13 9 44 28 43 39 -1 22 -88 23 -93 8 -93 -8
0 -17 6 -19 13 -4 9 -8 9 -15 -2 -6 -8 -17 -11 -25 -8 -8 3 -19 1 -25 -5 -6
-6 -18 -8 -26 -5 -12 5 -16 21 -16 65 0 76 13 90 52 55z m163 6 c6 0 33 3 62
5 29 3 55 1 58 -4 4 -6 12 -7 18 -3 21 13 168 12 173 -1 3 -7 -2 -28 -10 -48
-13 -31 -13 -37 -2 -41 10 -4 16 5 21 33 4 21 12 46 19 56 13 17 14 17 24 -2
5 -10 13 -40 17 -66 6 -40 5 -48 -8 -48 -8 0 -18 6 -20 13 -4 9 -8 8 -16 -3
-12 -17 -147 -24 -157 -9 -3 5 -11 6 -17 2 -7 -4 -40 -8 -75 -8 -61 -2 -92 10
-92 36 0 19 -21 8 -30 -17 -16 -40 -30 -18 -30 45 0 65 5 75 35 66 11 -4 25
-6 30 -6z m-294 -339 c24 -13 25 -56 2 -69 -17 -10 -16 -10 2 -11 11 0 31 -7
43 -16 19 -13 22 -24 22 -75 0 -46 3 -59 15 -59 8 0 15 7 15 15 0 8 2 15 4 15
2 0 11 3 19 6 8 3 24 -4 35 -16 26 -28 37 -21 51 34 12 48 33 76 58 76 12 0
13 3 3 14 -20 25 -8 61 21 64 35 4 55 -21 41 -52 -9 -20 -8 -25 9 -29 11 -3
26 -22 35 -44 33 -84 30 -82 44 -33 15 50 36 80 57 80 11 0 11 4 3 20 -6 12
-8 30 -5 41 10 30 69 23 73 -9 2 -13 -2 -30 -8 -38 -10 -11 -9 -14 2 -14 23 0
44 -30 62 -87 18 -53 15 -73 -8 -73 -8 0 -11 -10 -8 -30 3 -23 0 -30 -12 -30
-13 0 -16 -11 -16 -60 0 -33 -3 -60 -7 -61 -5 0 -23 -2 -41 -3 -40 -4 -52 14
-52 78 0 36 -4 46 -16 46 -12 0 -15 7 -12 30 5 31 -9 40 -44 32 -13 -3 -16
-11 -12 -28 4 -17 1 -26 -10 -30 -12 -5 -16 -20 -16 -59 0 -69 -8 -75 -92 -66
-5 1 -8 28 -8 61 0 47 -3 60 -15 60 -10 0 -15 10 -15 30 0 17 -4 30 -10 30
-19 0 -40 -46 -35 -76 4 -16 2 -47 -2 -69 -8 -35 -13 -40 -36 -40 -38 -1 -49
16 -49 77 0 65 -14 105 -39 111 -18 5 -19 -1 -19 -81 0 -99 -8 -119 -37 -104
-14 8 -23 8 -31 0 -22 -22 -32 5 -32 93 0 132 -16 117 -45 -43 -4 -21 -11 -38
-16 -38 -12 0 -11 17 2 60 5 19 10 82 10 139 0 56 4 111 9 121 5 10 23 21 40
25 26 6 28 8 15 21 -19 19 -19 24 1 52 17 25 27 27 55 12z m833 -6 c9 -8 16
-22 16 -29 0 -7 -7 -21 -16 -29 -14 -15 -14 -16 3 -16 10 0 29 -7 41 -16 19
-13 22 -24 22 -90 0 -67 -2 -74 -20 -74 -19 0 -20 -7 -20 -89 0 -74 -3 -90
-17 -95 -9 -4 -21 -2 -26 3 -7 7 -15 7 -25 -1 -26 -22 -42 18 -42 103 0 68 -2
77 -20 82 -17 4 -20 14 -20 69 0 71 21 108 62 108 20 0 20 1 4 19 -24 26 -4
66 36 70 4 1 14 -6 22 -15z m-137 -224 c-4 -17 -2 -30 3 -30 11 0 40 -64 40
-86 0 -8 -7 -14 -15 -14 -10 0 -15 -10 -15 -34 0 -38 -12 -50 -50 -50 -23 0
-25 4 -28 48 -3 39 -6 45 -17 36 -21 -17 -28 5 -15 44 6 19 18 40 26 47 8 7
12 20 9 30 -9 27 2 39 37 39 29 0 30 -2 25 -30z"/>
<path d="M5815 12300 c3 -5 8 -10 11 -10 2 0 4 5 4 10 0 6 -5 10 -11 10 -5 0
-7 -4 -4 -10z"/>
<path d="M6160 12283 c0 -32 1 -32 20 -15 14 12 17 18 8 21 -7 2 -16 9 -20 15
-4 6 -8 -4 -8 -21z"/>
<path d="M6291 12278 c0 -18 3 -27 6 -20 2 6 11 12 19 12 20 0 17 13 -6 28
-19 11 -20 10 -19 -20z"/>
<path d="M5957 12280 c-3 -11 -1 -23 4 -26 5 -3 9 6 9 20 0 31 -6 34 -13 6z"/>
<path d="M5810 12260 c0 -5 5 -10 10 -10 6 0 10 5 10 10 0 6 -4 10 -10 10 -5
0 -10 -4 -10 -10z"/>
<path d="M6239 12158 c-6 -13 -5 -68 1 -68 7 0 30 45 30 60 0 9 -28 15 -31 8z"/>
<path d="M5818 11573 c6 -2 18 -2 25 0 6 3 1 5 -13 5 -14 0 -19 -2 -12 -5z"/>
<path d="M3903 12516 c-296 -57 -535 -239 -663 -507 -236 -495 14 -1084 536
-1258 487 -163 1012 108 1163 601 150 492 -146 1018 -647 1149 -100 26 -290
34 -389 15z m6 -198 c11 -10 14 -10 18 0 8 20 32 14 38 -10 3 -13 9 -41 14
-63 9 -39 9 -38 10 23 1 61 2 62 29 62 15 0 33 -4 41 -9 9 -6 21 -5 32 2 13 8
24 8 43 -1 16 -7 26 -8 26 -1 0 6 33 9 85 8 l85 -2 0 -38 c0 -21 5 -41 10 -44
6 -4 10 6 10 22 0 16 7 38 15 49 15 19 15 19 30 0 8 -11 15 -29 15 -39 0 -21
48 -72 58 -62 3 3 -7 18 -22 34 -30 31 -31 57 -3 75 20 13 50 -2 55 -28 4 -19
-24 -22 -31 -3 -2 6 -8 9 -12 5 -4 -4 4 -20 18 -34 46 -46 30 -84 -34 -84 -21
0 -42 7 -50 16 -11 14 -13 14 -21 0 -13 -23 -87 -21 -104 2 -12 15 -13 15 -14
1 0 -12 -12 -18 -37 -22 -21 -2 -42 -1 -48 2 -5 4 -35 6 -65 5 -40 -1 -58 3
-67 15 -11 15 -12 15 -13 -1 0 -23 -55 -25 -64 -3 -3 8 -10 15 -16 15 -5 0
-10 -7 -10 -15 0 -8 -7 -15 -15 -15 -11 0 -14 7 -9 25 5 21 3 25 -15 25 -16 0
-21 -6 -21 -25 0 -15 -6 -25 -14 -25 -20 0 -22 10 -18 85 4 63 4 65 31 65 15
0 33 -6 40 -12z m-369 -188 l0 -170 -30 0 c-22 0 -30 5 -30 18 -1 9 -1 61 -1
115 0 89 -2 97 -20 97 -14 0 -19 7 -19 28 0 35 43 82 75 82 l25 0 0 -170z
m170 144 c0 -14 -17 -91 -37 -170 -36 -143 -37 -144 -65 -144 -35 0 -35 2 2
150 17 65 30 124 30 129 0 6 -18 11 -40 11 -36 0 -40 3 -40 25 0 24 2 25 75
25 74 0 75 0 75 -26z m228 -162 c4 -27 22 -29 22 -3 0 19 23 35 34 24 3 -4 6
-39 6 -80 0 -58 -3 -73 -15 -73 -8 0 -15 6 -16 13 0 10 -2 10 -6 0 -7 -19 -23
-16 -24 5 -1 16 -2 16 -6 0 -3 -14 -15 -18 -48 -18 l-43 0 -4 71 c-2 38 1 74
6 79 4 4 27 7 50 6 34 -2 42 -6 44 -24z m138 18 c18 -7 30 -7 40 1 10 8 21 7
42 -4 24 -11 32 -12 47 -1 13 10 23 10 37 3 16 -9 18 -20 16 -71 -3 -70 -22
-93 -58 -70 -12 7 -20 8 -20 2 0 -5 -7 -10 -15 -10 -8 0 -15 5 -15 11 0 8 -5
7 -15 -1 -18 -15 -28 -8 -32 22 -5 29 -8 31 -32 18 -12 -6 -21 -20 -21 -31 0
-12 -5 -19 -12 -17 -18 6 -23 138 -6 149 16 11 12 11 44 -1z m224 -56 c0 -39
4 -56 15 -60 27 -11 17 -34 -15 -34 l-30 0 0 73 c0 41 3 77 6 80 15 15 24 -8
24 -59z m-397 -151 c8 -10 17 -29 20 -43 4 -22 4 -21 6 6 1 37 28 66 41 44 4
-7 11 -38 15 -69 4 -31 10 -49 13 -41 3 8 9 17 13 21 5 3 3 20 -4 38 -11 29
-10 34 7 47 25 18 31 18 50 -2 20 -19 11 -38 -15 -31 -17 5 -16 1 6 -25 18
-21 24 -37 19 -52 -11 -34 -45 -48 -60 -25 -4 8 -9 7 -15 -2 -8 -11 -12 -11
-23 4 -15 19 -33 22 -38 6 -2 -6 -25 -13 -51 -16 l-47 -4 0 81 c0 77 1 80 23
80 13 0 31 -8 40 -17z m238 -13 l6 -25 7 26 c7 26 10 27 92 28 68 1 84 -1 84
-13 0 -8 -4 -18 -10 -21 -5 -3 -10 -33 -10 -66 0 -44 -3 -60 -12 -57 -8 3 -14
28 -16 66 -3 53 -6 62 -22 62 -25 0 -35 -17 -20 -35 10 -12 10 -18 -1 -31 -11
-14 -11 -18 4 -29 30 -22 19 -35 -28 -35 -40 0 -45 3 -46 23 0 21 -1 21 -11
-3 -6 -16 -12 -20 -15 -12 -4 10 -8 10 -20 1 -12 -10 -16 -10 -24 2 -10 17
-12 132 -2 143 14 13 37 1 44 -24z m255 -21 c7 -27 17 -45 27 -47 10 -2 17
-10 17 -18 0 -8 5 -12 11 -8 7 4 1 16 -15 33 -29 30 -33 62 -11 81 17 14 51 5
59 -17 9 -23 -2 -29 -24 -15 -27 17 -25 6 5 -30 29 -34 31 -50 10 -72 -19 -19
-83 -16 -96 4 -8 13 -11 13 -23 -2 -23 -30 -29 -20 -22 36 13 112 42 137 62
55z m-165 -209 c21 -11 51 -38 65 -60 19 -29 37 -43 65 -50 46 -13 103 -60
126 -104 32 -62 15 -177 -31 -215 -11 -9 -16 -31 -16 -65 -1 -98 -65 -182
-157 -206 -37 -9 -55 -8 -99 5 -50 14 -58 14 -102 0 -72 -25 -165 2 -210 60
-30 37 -55 120 -47 153 4 20 1 33 -10 42 -31 25 -55 88 -55 140 0 91 55 163
146 190 27 8 47 22 58 41 53 90 167 119 267 69z"/>
<path d="M3870 12280 c0 -19 3 -21 12 -12 9 9 9 15 0 24 -9 9 -12 7 -12 -12z"/>
<path d="M4025 12291 c-3 -5 -1 -12 5 -16 5 -3 10 1 10 9 0 18 -6 21 -15 7z"/>
<path d="M4110 12255 c0 -25 5 -45 10 -45 6 0 10 6 10 14 0 8 7 16 15 20 8 3
15 10 15 16 0 5 -7 10 -15 10 -8 0 -15 7 -15 15 0 8 -4 15 -10 15 -5 0 -10
-20 -10 -45z"/>
<path d="M4190 12286 c0 -8 6 -16 13 -19 10 -4 10 -7 0 -18 -18 -18 -16 -39 2
-39 11 0 15 12 15 45 0 33 -4 45 -15 45 -8 0 -15 -6 -15 -14z"/>
<path d="M4255 12291 c-3 -5 -1 -12 5 -16 5 -3 10 1 10 9 0 18 -6 21 -15 7z"/>
<path d="M4061 12234 c0 -11 3 -14 6 -6 3 7 2 16 -1 19 -3 4 -6 -2 -5 -13z"/>
<path d="M4287 12230 c3 -11 7 -20 9 -20 2 0 4 9 4 20 0 11 -4 20 -9 20 -5 0
-7 -9 -4 -20z"/>
<path d="M3870 12086 c0 -8 6 -16 13 -19 10 -4 10 -7 0 -18 -18 -18 -16 -39 2
-39 11 0 15 12 15 45 0 33 -4 45 -15 45 -8 0 -15 -6 -15 -14z"/>
<path d="M4062 12080 c0 -14 2 -19 5 -12 2 6 2 18 0 25 -3 6 -5 1 -5 -13z"/>
<path d="M4210 12061 c0 -22 5 -43 10 -46 6 -4 10 12 10 39 0 25 -4 46 -10 46
-5 0 -10 -18 -10 -39z"/>
<path d="M4171 12034 c0 -11 3 -14 6 -6 3 7 2 16 -1 19 -3 4 -6 -2 -5 -13z"/>
<path d="M3870 11859 c0 -47 9 -47 16 -1 3 17 0 33 -6 37 -6 4 -10 -9 -10 -36z"/>
<path d="M4080 11649 c-25 -10 -80 -58 -80 -69 0 -3 15 -12 34 -18 19 -7 49
-29 66 -48 l31 -36 43 40 c24 22 53 43 65 47 31 9 26 30 -14 61 -39 29 -105
40 -145 23z"/>
<path d="M3866 11499 c-54 -43 -73 -128 -41 -189 19 -37 25 -37 56 -4 13 14
41 35 62 45 20 11 37 21 37 24 0 2 -9 19 -20 37 -11 18 -20 50 -20 71 0 32 -3
37 -24 37 -13 0 -35 -9 -50 -21z"/>
<path d="M3980 11499 c0 -37 43 -100 81 -120 l37 -18 4 24 c7 33 -14 76 -51
108 -40 33 -71 36 -71 6z"/>
<path d="M4224 11501 c-35 -21 -67 -80 -62 -116 l3 -25 35 17 c42 22 80 76 80
114 0 34 -13 36 -56 10z"/>
<path d="M4325 11478 c-4 -24 -16 -57 -26 -74 l-19 -32 32 -13 c18 -7 50 -29
70 -47 l37 -34 21 34 c37 60 21 130 -40 182 -47 39 -67 35 -75 -16z"/>
<path d="M3960 11303 c-39 -20 -55 -34 -55 -48 0 -16 8 -21 39 -23 46 -4 86
11 117 44 25 27 20 39 -21 49 -17 4 -43 -3 -80 -22z"/>
<path d="M4203 11320 c-13 -5 -23 -13 -23 -18 0 -11 39 -46 67 -61 26 -13 92
-14 113 -1 12 7 11 12 -5 31 -22 24 -91 59 -115 58 -8 0 -25 -4 -37 -9z"/>
<path d="M4111 11251 c-27 -49 -16 -158 16 -168 19 -7 46 46 46 91 0 40 -25
96 -44 96 -4 0 -13 -8 -18 -19z"/>
<path d="M4010 11188 c-14 -5 -48 -7 -77 -4 -28 3 -54 2 -57 -2 -12 -20 18
-94 51 -122 32 -29 57 -35 113 -31 48 3 52 8 33 37 -9 15 -22 50 -28 79 -10
50 -11 52 -35 43z"/>
<path d="M4220 11161 c0 -20 -9 -54 -20 -75 -10 -22 -17 -43 -14 -47 3 -5 29
-9 59 -9 44 0 59 5 86 27 33 28 59 78 59 113 0 19 -4 20 -48 14 -26 -3 -65 -1
-85 4 l-37 10 0 -37z"/>
<path d="M9900 11661 c0 -10 19 -25 25 -20 1 2 -3 10 -11 17 -8 7 -14 8 -14 3z"/>
<path d="M2065 11627 c-105 -30 -215 -84 -293 -144 -52 -39 -60 -49 -43 -51
12 -2 22 -9 22 -15 5 -38 6 -295 2 -309 -3 -12 -14 -18 -34 -18 l-29 0 0 122
c0 95 -3 119 -12 110 -19 -19 -27 -14 -30 19 l-3 32 -47 -64 c-67 -90 -112
-180 -144 -284 -24 -80 -27 -106 -28 -240 -1 -128 3 -162 22 -230 89 -312 327
-544 642 -626 115 -31 299 -30 415 0 85 22 243 94 285 129 l25 21 -86 1 c-66
0 -90 4 -99 16 -11 12 -11 18 2 30 8 9 13 26 10 44 -3 25 -10 30 -44 35 -52 9
-528 -5 -549 -15 -8 -5 -20 -6 -25 -2 -18 12 -24 58 -11 75 10 15 21 16 87 7
41 -5 110 -10 153 -10 l77 0 0 34 c0 31 -3 35 -32 41 -39 7 -178 76 -178 87 0
4 16 8 37 8 35 0 123 42 123 59 0 4 -11 14 -25 21 -36 19 -60 63 -85 157 -12
45 -28 87 -36 94 -28 23 -16 39 29 39 56 -1 116 -29 189 -90 93 -78 136 -79
226 -5 55 45 96 57 119 34 6 -6 16 -8 23 -4 8 5 5 13 -10 27 -30 28 -24 74 9
70 16 -1 22 2 18 12 -3 8 0 22 8 32 11 15 15 16 29 5 9 -7 16 -22 16 -32 0
-11 5 -19 10 -19 6 0 10 9 10 19 0 25 26 51 51 51 33 0 21 -51 -16 -69 l-30
-15 33 -8 c34 -9 39 -17 20 -36 -15 -15 -51 -15 -66 0 -9 10 -16 9 -28 -4 -14
-14 -14 -15 8 -11 15 3 30 -3 42 -15 17 -20 17 -21 -4 -32 -17 -9 -26 -8 -45
4 -33 22 -38 20 -33 -9 3 -14 2 -28 -3 -31 -5 -2 -6 -19 -2 -36 5 -24 3 -30
-8 -26 -8 3 -14 13 -14 24 0 23 -24 29 -49 11 -14 -10 -20 -34 -26 -94 -5 -45
-13 -90 -19 -101 -19 -36 -90 -91 -133 -103 -24 -6 -49 -13 -56 -15 -8 -2 -12
-16 -10 -36 l3 -33 105 0 c103 0 104 0 110 25 6 24 9 25 94 28 l87 3 -3 -91
c-2 -49 0 -90 3 -90 3 0 10 -10 16 -22 10 -22 12 -20 75 42 267 267 334 677
167 1011 -107 215 -289 369 -529 450 -54 18 -93 22 -235 25 -153 3 -178 1
-250 -19z m79 -189 c13 -18 16 -19 16 -6 0 9 5 20 10 23 20 12 38 -16 45 -66
8 -54 16 -54 33 -1 9 26 8 32 -4 32 -7 0 -14 9 -14 20 0 16 7 20 30 20 39 0
44 -15 25 -70 -12 -35 -13 -45 -3 -52 7 -4 18 -6 25 -3 16 5 25 -9 18 -27 -8
-19 -115 -12 -131 8 -15 18 -24 18 -24 -1 0 -8 -7 -15 -16 -15 -10 0 -14 7
-12 23 1 12 -1 23 -5 25 -18 6 -27 0 -27 -17 0 -25 -20 -38 -31 -20 -10 16
-12 109 -3 133 9 23 50 19 68 -6z m533 5 c5 -14 7 -14 15 1 11 20 37 21 65 1
19 -13 22 -13 27 0 8 23 35 18 41 -7 27 -114 22 -168 -11 -124 -14 19 -14 19
-27 1 -8 -10 -19 -15 -24 -12 -6 4 -16 0 -23 -8 -17 -21 -25 -19 -40 10 -12
22 -14 23 -25 8 -20 -27 -35 -5 -37 55 l-1 57 -6 -59 c-6 -58 -25 -84 -37 -51
-6 14 -8 14 -25 -1 -15 -13 -24 -15 -42 -7 -15 7 -27 7 -39 -1 -13 -8 -23 -8
-38 2 -16 10 -24 10 -40 0 -36 -23 -72 17 -55 60 6 16 8 15 21 -2 13 -18 14
-15 14 35 l0 54 140 2 c120 2 142 0 147 -14z m-753 -32 c8 -9 16 -32 18 -51 3
-32 0 -35 -24 -38 -22 -3 -30 2 -38 23 -13 34 -34 27 -38 -11 -3 -29 -1 -30
31 -26 49 6 77 -32 77 -104 0 -91 -23 -118 -100 -116 -25 1 -42 9 -58 28 -22
26 -23 33 -20 149 2 103 6 126 22 143 29 33 102 35 130 3z m856 -147 c0 -17 5
-17 30 -2 15 10 24 10 38 1 12 -7 24 -8 35 -2 23 13 57 -6 57 -31 0 -11 -7
-20 -15 -20 -8 0 -15 5 -15 10 0 6 -5 10 -12 10 -6 0 0 -13 15 -28 29 -30 35
-63 15 -79 -16 -13 -189 -14 -205 -1 -7 6 -16 2 -27 -14 l-17 -23 -17 23 c-10
13 -21 20 -25 15 -12 -11 -91 -12 -104 -1 -7 6 -14 34 -15 62 l-1 51 -6 -60
c-5 -46 -10 -61 -23 -63 -16 -3 -18 5 -20 60 l-1 63 -6 -60 c-5 -46 -10 -61
-23 -63 -16 -3 -18 5 -18 58 0 38 -4 59 -10 55 -5 -3 -10 -31 -10 -61 0 -41
-4 -54 -15 -54 -12 0 -15 13 -15 60 0 33 -4 60 -10 60 -5 0 -10 -4 -10 -10 0
-14 -27 -12 -33 3 -3 7 -6 7 -6 1 -1 -6 8 -19 19 -29 28 -26 27 -73 -2 -79
-43 -7 -83 -4 -90 7 -6 9 -8 9 -8 0 0 -7 -7 -13 -15 -13 -12 0 -15 15 -15 74
0 70 10 100 25 76 5 -8 11 -8 20 0 9 8 15 8 20 0 4 -7 12 -7 26 0 13 7 25 7
38 0 11 -6 22 -6 25 -1 3 5 50 8 103 7 l98 -1 4 -65 5 -65 5 65 c6 62 7 65 33
67 15 1 30 -2 33 -8 4 -5 14 -5 26 1 13 7 25 7 38 0 26 -13 31 -13 31 4 0 8 6
16 13 19 18 6 37 -3 37 -19z m-642 -16 c2 -11 -3 -18 -12 -18 -19 0 -22 -26
-3 -33 9 -3 9 -8 -3 -21 -13 -16 -12 -20 3 -31 28 -20 20 -37 -15 -33 l-33 3
-3 63 c-2 40 2 69 9 78 16 20 53 14 57 -8z m52 -64 c0 -59 -3 -74 -15 -74 -12
0 -15 15 -15 73 0 41 3 77 6 80 16 16 24 -10 24 -79z m312 -131 c10 -13 9 -18
-7 -29 -17 -13 -17 -15 -2 -32 40 -44 15 -70 -70 -71 l-63 -1 0 61 c0 38 -4
58 -10 54 -5 -3 -10 -31 -10 -61 0 -41 -4 -54 -15 -54 -11 0 -15 11 -15 41 0
25 -4 38 -10 34 -6 -4 -8 -21 -4 -41 7 -36 -9 -47 -34 -22 -7 7 -12 8 -12 2 0
-6 -23 -11 -51 -12 -47 -1 -51 1 -61 29 -13 38 -28 37 -28 -2 0 -24 -4 -30
-17 -27 -14 3 -19 15 -21 62 -2 32 -1 64 2 71 4 10 53 13 210 13 172 0 207 -2
218 -15z m333 -698 c0 -18 -8 -20 -99 -23 -101 -3 -121 4 -109 35 4 11 28 13
107 11 93 -3 101 -5 101 -23z"/>
<path d="M2560 11395 c14 -17 26 -32 28 -34 1 -2 2 8 2 23 0 16 -4 25 -10 21
-6 -4 -19 -1 -28 6 -9 8 -6 0 8 -16z"/>
<path d="M2720 11380 c0 -43 0 -44 16 -22 8 12 20 20 25 17 5 -4 9 1 9 10 0
10 -5 13 -12 9 -6 -4 -17 1 -25 11 -12 17 -13 14 -13 -25z"/>
<path d="M1844 11237 c-11 -29 0 -92 16 -92 11 0 15 12 15 49 0 49 -19 74 -31
43z"/>
<path d="M2671 11183 c0 -27 3 -41 6 -33 3 8 12 20 20 27 13 10 12 14 -6 32
l-21 21 1 -47z"/>
<path d="M2753 11190 c0 -25 2 -35 4 -22 2 12 2 32 0 45 -2 12 -4 2 -4 -23z"/>
<path d="M2830 11216 c0 -8 6 -16 13 -19 10 -4 10 -7 0 -18 -15 -15 -17 -39
-3 -39 16 0 31 38 24 65 -6 26 -34 35 -34 11z"/>
<path d="M2270 11184 c0 -8 5 -12 10 -9 6 4 8 11 5 16 -9 14 -15 11 -15 -7z"/>
<path d="M2300 11160 c0 -5 5 -10 11 -10 5 0 7 5 4 10 -3 6 -8 10 -11 10 -2 0
-4 -4 -4 -10z"/>
<path d="M2890 11160 c0 -5 5 -10 11 -10 5 0 7 5 4 10 -3 6 -8 10 -11 10 -2 0
-4 -4 -4 -10z"/>
<path d="M2407 11038 c-17 -9 -17 -11 -2 -27 14 -16 14 -19 0 -31 -20 -17 -19
-27 5 -33 15 -4 20 0 20 13 0 10 3 20 8 22 4 2 3 17 -3 35 -9 26 -13 30 -28
21z"/>
<path d="M2110 11026 c0 -9 7 -16 16 -16 9 0 14 5 12 12 -6 18 -28 21 -28 4z"/>
<path d="M2173 10995 c0 -22 2 -30 4 -17 2 12 2 30 0 40 -3 9 -5 -1 -4 -23z"/>
<path d="M9913 11570 c0 -25 2 -35 4 -22 2 12 2 32 0 45 -2 12 -4 2 -4 -23z"/>
<path d="M9582 11454 c-7 -8 -8 -14 -3 -14 10 0 25 19 20 25 -2 1 -10 -3 -17
-11z"/>
<path d="M9682 11454 c-7 -8 -8 -14 -3 -14 10 0 25 19 20 25 -2 1 -10 -3 -17
-11z"/>
<path d="M9981 11463 c-2 -20 16 -24 30 -5 13 15 12 16 -3 4 -13 -10 -17 -10
-21 0 -4 9 -6 9 -6 1z"/>
<path d="M9505 11450 c-16 -7 -17 -9 -3 -9 9 -1 20 4 23 9 7 11 7 11 -20 0z"/>
<path d="M9858 11443 c7 -3 16 -2 19 1 4 3 -2 6 -13 5 -11 0 -14 -3 -6 -6z"/>
<path d="M9282 11380 c0 -14 2 -19 5 -12 2 6 2 18 0 25 -3 6 -5 1 -5 -13z"/>
<path d="M9956 11295 c-11 -8 -15 -15 -9 -15 6 0 16 7 23 15 16 19 11 19 -14
0z"/>
<path d="M10120 11040 c0 -5 5 -10 11 -10 5 0 7 5 4 10 -3 6 -8 10 -11 10 -2
0 -4 -4 -4 -10z"/>
<path d="M9636 10893 c-6 -14 -5 -15 5 -6 7 7 10 15 7 18 -3 3 -9 -2 -12 -12z"/>
<path d="M9850 10859 c0 -5 -4 -7 -10 -4 -5 3 -10 1 -10 -4 0 -6 7 -11 15 -11
8 0 15 7 15 15 0 8 -2 15 -5 15 -3 0 -5 -5 -5 -11z"/>
<path d="M10265 10850 c-3 -6 1 -7 9 -4 18 7 21 14 7 14 -6 0 -13 -4 -16 -10z"/>
<path d="M2747 10799 c3 -10 9 -16 14 -13 13 8 11 21 -5 27 -10 4 -12 0 -9
-14z"/>
<path d="M9880 10796 c0 -14 4 -27 8 -30 5 -3 6 8 4 25 -5 35 -12 38 -12 5z"/>
<path d="M9670 10789 c0 -5 5 -7 10 -4 6 3 10 8 10 11 0 2 -4 4 -10 4 -5 0
-10 -5 -10 -11z"/>
<path d="M9359 10757 c4 -4 50 -6 102 -5 l94 3 -102 5 c-56 3 -99 1 -94 -3z"/>
<path d="M9320 10730 c-6 -11 -8 -20 -6 -20 3 0 10 9 16 20 6 11 8 20 6 20 -3
0 -10 -9 -16 -20z"/>
<path d="M10980 10344 c-293 -57 -509 -218 -631 -470 -60 -123 -79 -213 -79
-369 0 -113 4 -146 26 -221 67 -234 224 -423 439 -529 126 -62 187 -77 346
-82 116 -4 148 -2 220 16 472 119 748 592 614 1054 -45 157 -115 268 -238 383
-107 99 -217 160 -362 201 -50 14 -288 26 -335 17z m317 -177 c-3 -7 1 -40 8
-73 l13 -59 1 51 c1 57 18 80 51 69 19 -6 21 -13 18 -73 l-3 -67 -45 -1 c-30
-1 -49 4 -57 15 -10 15 -12 14 -18 -1 -4 -10 -17 -18 -29 -18 -12 0 -28 -6
-35 -12 -10 -11 -14 -10 -22 4 -6 10 -16 15 -26 11 -9 -4 -19 1 -25 10 -11 21
-28 22 -28 2 0 -11 -12 -15 -44 -15 -25 0 -48 5 -52 11 -4 8 -9 8 -17 0 -6 -6
-21 -11 -33 -11 -13 0 -26 5 -30 11 -4 8 -9 8 -17 0 -6 -6 -39 -11 -74 -11
l-63 0 0 76 0 75 88 -3 87 -4 6 -59 6 -60 1 57 c2 57 15 79 35 59 7 -7 14 -7
24 1 20 16 63 -6 63 -32 0 -25 -18 -26 -36 -2 -12 15 -13 11 -14 -30 0 -27 5
-48 10 -48 6 0 10 7 10 15 0 8 9 19 19 25 12 6 21 23 23 42 2 21 9 34 20 36
12 2 19 -11 31 -60 l15 -63 1 57 c1 53 3 58 26 64 15 4 32 1 40 -6 19 -16 19
-50 0 -50 -8 0 -15 7 -15 15 0 8 -4 15 -10 15 -5 0 -10 -20 -10 -45 0 -47 14
-61 23 -24 3 12 10 18 16 15 11 -7 19 17 25 69 5 38 2 35 27 35 13 0 19 -5 16
-13z m-653 -23 c3 -9 6 -58 6 -110 0 -56 5 -102 12 -114 9 -14 9 -25 1 -42 -6
-13 -14 -31 -17 -40 -3 -11 -15 -18 -31 -18 -20 0 -25 5 -25 24 0 23 -5 25
-47 28 -40 2 -49 7 -51 24 -2 11 18 75 44 142 45 114 49 122 75 122 15 0 29
-7 33 -16z m192 -185 c4 -8 9 -8 17 0 16 16 57 14 57 -3 0 -8 -7 -17 -16 -20
-13 -5 -14 -9 -4 -21 10 -12 10 -22 2 -39 -8 -18 -6 -25 9 -35 11 -6 17 -16
14 -21 -8 -13 -52 -13 -60 0 -4 6 -15 5 -30 -2 -44 -20 -55 -6 -55 70 0 38 3
72 7 75 10 11 51 8 59 -4z m165 -5 c11 -13 14 -13 21 -1 4 9 21 14 40 13 31
-1 33 -4 39 -46 5 -44 5 -44 13 -15 4 17 10 38 13 48 7 27 26 15 40 -24 l12
-34 0 38 c1 62 25 40 29 -25 2 -38 8 -58 17 -62 12 -4 15 7 15 60 0 48 3 65
13 62 8 -3 12 -28 12 -79 l0 -74 -48 -3 c-38 -2 -52 1 -63 15 -13 16 -15 17
-24 2 -12 -20 -88 -19 -101 2 -8 14 -10 12 -13 -13 -2 -22 -37 -20 -62 3 -18
17 -24 33 -24 64 0 66 40 106 71 69z m343 0 c9 -8 16 -27 17 -42 1 -25 2 -24
9 6 18 78 44 65 57 -28 l8 -55 5 65 c4 58 7 65 28 68 13 2 29 -2 37 -8 9 -7
15 -8 20 0 8 12 52 13 59 1 3 -5 -1 -14 -9 -21 -9 -8 -13 -21 -9 -32 3 -10 0
-26 -7 -34 -10 -12 -8 -18 10 -30 12 -9 19 -20 16 -25 -8 -12 -52 -12 -60 1
-4 7 -12 7 -25 0 -23 -12 -83 -7 -88 9 -5 15 -32 14 -32 -2 0 -9 -15 -13 -47
-12 l-48 0 -3 64 c-2 35 -1 70 2 77 7 19 41 18 60 -2z m270 -340 c16 -41 7
-54 -34 -54 -33 0 -40 3 -40 19 0 36 12 51 40 51 16 0 30 -7 34 -16z m-874
-324 l5 -283 155 -43 c85 -24 163 -44 173 -44 10 0 90 23 178 52 l159 52 0
279 c0 260 1 278 18 275 16 -3 17 -26 20 -294 l2 -290 -186 -59 -186 -58 -141
38 c-78 21 -163 44 -189 52 l-48 14 0 293 c0 161 3 296 7 300 24 23 28 -16 33
-284z m179 209 l141 -81 0 -234 c0 -177 -3 -234 -12 -234 -22 0 -263 72 -275
83 -15 11 -19 547 -4 547 5 0 72 -36 150 -81z m471 -194 l0 -274 -72 -21 c-40
-12 -102 -30 -137 -41 -35 -10 -69 -19 -77 -19 -12 0 -14 41 -14 234 l0 234
138 81 c75 44 143 81 150 81 9 0 12 -61 12 -275z m228 -18 c2 -247 -7 -335
-35 -344 -6 -2 -18 17 -27 43 -13 39 -16 94 -16 294 0 136 3 250 7 254 4 4 21
6 38 4 l30 -3 3 -248z"/>
<path d="M10804 10119 c-3 -6 0 -15 7 -20 11 -7 12 -12 2 -29 -17 -26 -16 -30
2 -30 11 0 15 12 15 45 0 43 -11 58 -26 34z"/>
<path d="M10873 10085 c0 -27 2 -38 4 -22 2 15 2 37 0 50 -2 12 -4 0 -4 -28z"/>
<path d="M11353 10085 c0 -27 2 -38 4 -22 2 15 2 37 0 50 -2 12 -4 0 -4 -28z"/>
<path d="M10563 9965 c-9 -29 -9 -35 3 -35 9 0 14 12 14 35 0 19 -1 35 -3 35
-2 0 -8 -16 -14 -35z"/>
<path d="M10800 9890 c0 -22 5 -40 10 -40 6 0 10 18 10 40 0 22 -4 40 -10 40
-5 0 -10 -18 -10 -40z"/>
<path d="M10973 9885 c0 -27 2 -38 4 -22 2 15 2 37 0 50 -2 12 -4 0 -4 -28z"/>
<path d="M11310 9890 c0 -22 5 -40 10 -40 6 0 10 18 10 40 0 22 -4 40 -10 40
-5 0 -10 -18 -10 -40z"/>
<path d="M11470 9890 c0 -22 5 -40 10 -40 6 0 10 18 10 40 0 22 -4 40 -10 40
-5 0 -10 -18 -10 -40z"/>
<path d="M2373 10295 c0 -22 2 -30 4 -17 2 12 2 30 0 40 -3 9 -5 -1 -4 -23z"/>
<path d="M6430 9778 c0 -8 7 -21 15 -28 19 -16 19 -1 0 24 -12 16 -15 17 -15
4z"/>
<path d="M4740 9646 c0 -2 8 -10 18 -17 15 -13 16 -12 3 4 -13 16 -21 21 -21
13z"/>
<path d="M4840 9547 c35 -37 67 -67 69 -67 4 0 -25 33 -79 89 -9 9 -25 22 -35
30 -11 8 9 -15 45 -52z"/>
<path d="M6212 9535 c-147 -15 -168 -19 -297 -51 -261 -65 -524 -199 -718
-367 -186 -161 -385 -463 -500 -757 -60 -152 -90 -257 -124 -420 -25 -124 -27
-153 -28 -370 0 -205 3 -252 24 -365 46 -252 118 -463 240 -700 106 -205 204
-349 396 -580 232 -280 331 -445 413 -690 74 -220 110 -483 92 -660 -18 -164
-6 -391 30 -575 31 -161 80 -230 204 -290 l84 -40 22 -64 c43 -132 106 -181
253 -198 82 -10 247 -5 281 8 33 13 -5 24 -84 24 -70 1 -129 18 -123 36 2 4
-27 6 -65 5 -37 -1 -74 3 -82 8 -10 7 14 10 77 10 51 0 101 5 110 10 10 6 15
11 11 11 -11 0 26 36 43 43 8 3 -6 5 -31 5 -37 0 -40 -1 -20 -8 33 -11 17 -12
-120 -10 -63 1 -120 6 -126 11 -6 5 -13 8 -15 6 -2 -1 1 3 7 8 7 7 83 10 200
8 104 -1 205 2 224 7 19 5 67 12 105 15 39 3 91 10 116 17 58 14 78 7 86 -32
9 -50 28 -28 34 41 3 35 4 65 3 67 -1 2 -37 -1 -79 -7 -159 -22 -504 -8 -684
29 -170 34 -254 74 -298 139 -31 45 -38 74 -69 286 -24 163 -26 197 -20 354 4
96 11 180 16 186 6 8 69 14 172 18 148 6 314 20 448 36 7 1 1 261 -8 301 -5
23 -9 -17 -12 -120 l-5 -155 -130 -3 c-461 -9 -466 -9 -476 9 -5 10 -9 51 -9
91 0 160 -63 393 -160 592 -63 129 -182 309 -287 436 -234 281 -363 470 -479
703 -252 501 -308 996 -170 1498 128 466 405 878 741 1102 316 211 623 295
1035 284 276 -7 495 -57 758 -173 120 -53 342 -165 370 -187 25 -20 21 0 -6
25 -91 86 -368 231 -563 295 -159 53 -286 79 -478 98 -174 17 -163 17 -329 0z"/>
<path d="M4959 9422 c18 -34 71 -72 101 -72 17 0 40 11 59 29 30 28 41 61 21
61 -5 0 -10 -8 -10 -18 0 -11 -9 -27 -20 -37 -26 -24 -73 -14 -123 27 -30 23
-36 26 -28 10z"/>
<path d="M8010 9395 c-7 -8 -8 -15 -2 -15 5 0 15 7 22 15 7 8 8 15 2 15 -5 0
-15 -7 -22 -15z"/>
<path d="M6107 9059 c-63 -14 -133 -56 -200 -119 -66 -61 -123 -93 -189 -105
-63 -12 -44 -27 25 -19 82 9 102 20 189 107 115 116 229 148 325 92 25 -15 43
-22 39 -16 -11 17 -88 58 -121 63 -16 3 -47 1 -68 -3z"/>
<path d="M6854 8999 c-73 -11 -181 -47 -145 -48 14 -1 63 6 110 15 95 18 193
14 275 -11 64 -20 82 -20 66 -1 -31 39 -193 63 -306 45z"/>
<path d="M9011 8976 c4 -4 21 -11 39 -16 20 -6 30 -6 24 -1 -10 11 -72 27 -63
17z"/>
<path d="M9060 8854 c-41 -44 -92 -77 -265 -172 -215 -118 -305 -143 -359
-101 -26 20 -34 16 -17 -9 10 -17 79 -33 111 -26 167 37 586 282 569 333 -2 6
-20 -5 -39 -25z"/>
<path d="M3845 8826 c45 -40 171 -109 228 -124 20 -6 37 -9 37 -7 0 2 -37 22
-83 43 -46 21 -108 54 -138 73 -80 52 -88 54 -44 15z"/>
<path d="M4445 8746 c9 -13 16 -39 17 -59 2 -48 18 -37 18 12 0 24 -7 44 -18
54 -27 24 -35 21 -17 -7z"/>
<path d="M5940 8710 c-11 -7 -3 -10 28 -10 31 0 62 -10 106 -35 48 -27 75 -35
112 -35 61 0 102 -24 142 -83 34 -49 71 -77 102 -77 16 0 -4 23 -76 93 l-97
92 -73 7 c-48 5 -89 16 -121 32 -49 27 -97 33 -123 16z"/>
<path d="M6701 8643 c-22 -18 -51 -106 -51 -154 0 -14 -11 -52 -24 -85 -35
-87 -40 -128 -26 -206 12 -63 12 -72 -4 -96 -51 -78 -57 -105 -54 -239 3 -117
4 -126 18 -103 10 18 14 60 15 145 2 128 9 155 53 192 l26 22 -17 48 c-27 75
-23 146 13 207 25 45 29 60 27 123 -2 66 0 73 31 111 17 23 32 43 32 46 0 11
-18 6 -39 -11z"/>
<path d="M5437 8624 c-19 -16 -40 -24 -65 -24 -88 0 -190 -54 -235 -122 -14
-21 -35 -80 -47 -131 -26 -105 -45 -141 -98 -186 -63 -54 -82 -95 -82 -179 0
-42 8 -103 20 -144 29 -105 27 -122 -21 -176 -76 -85 -94 -161 -68 -281 9 -44
8 -59 -10 -111 -29 -83 -14 -135 72 -250 111 -149 193 -221 247 -219 23 1 23
1 -5 10 -51 14 -113 76 -188 188 -40 58 -80 119 -89 136 -22 38 -23 100 -3
156 12 33 14 65 9 141 -6 92 -5 100 20 151 14 29 42 68 62 86 32 30 35 37 29
69 -4 20 -14 50 -23 67 -17 32 -29 186 -18 229 9 35 60 91 106 117 50 28 77
78 96 180 9 46 21 97 28 114 34 80 112 131 217 142 44 4 62 11 70 25 17 32 6
38 -24 12z"/>
<path d="M8040 8565 c0 -6 6 -20 14 -31 31 -44 125 -243 149 -317 50 -148 69
-276 74 -493 9 -349 -40 -625 -174 -979 -91 -241 -183 -402 -437 -765 -265
-380 -460 -720 -526 -919 -28 -83 -31 -105 -28 -182 2 -51 -1 -92 -7 -97 -5
-5 -61 -14 -123 -20 -189 -19 -171 -39 34 -41 139 -1 142 -3 168 -90 30 -101
21 -147 -30 -157 -46 -8 -53 -24 -12 -24 19 0 39 -5 46 -12 26 -26 9 -290 -29
-450 -11 -48 -19 -93 -17 -99 6 -19 58 87 78 159 24 86 38 187 46 337 8 143
-3 224 -51 386 -19 64 -35 137 -35 163 0 134 186 487 504 960 226 337 289 440
386 637 124 252 215 554 244 811 27 229 28 278 12 433 -20 186 -22 195 -57
330 -34 134 -57 194 -115 306 -42 81 -113 177 -114 154z"/>
<path d="M11545 8390 c-94 -24 -173 -60 -247 -112 l-61 -43 51 -3 c50 -3 52
-4 52 -33 0 -28 -1 -29 -50 -29 -49 0 -50 -1 -50 -29 0 -28 3 -30 42 -33 57
-4 70 -29 66 -127 -3 -68 -6 -75 -33 -97 -35 -28 -64 -30 -105 -9 -32 17 -43
44 -38 96 2 28 7 35 29 37 24 3 27 -1 33 -37 8 -51 32 -55 42 -7 7 39 -3 96
-16 96 -5 0 -14 -9 -20 -21 -8 -14 -19 -19 -38 -17 -26 3 -27 6 -32 75 l-5 73
-47 -58 c-66 -82 -123 -192 -153 -299 -25 -86 -27 -104 -23 -235 4 -121 8
-155 31 -223 122 -367 477 -604 851 -568 69 6 75 8 41 13 -38 5 -40 7 -43 42
-3 36 -5 37 -45 40 -42 3 -42 3 -45 46 -3 38 -1 42 20 43 62 3 63 3 66 36 3
28 0 33 -25 39 -42 10 -106 50 -140 88 -50 54 -66 95 -71 177 -4 67 -1 84 21
130 29 63 74 112 131 142 60 31 193 31 256 0 l45 -23 35 35 35 35 -33 0 c-31
0 -32 1 -32 45 l0 46 113 -3 112 -3 0 -110 0 -110 -45 0 c-43 0 -45 1 -44 28
1 34 -3 34 -42 -4 l-32 -31 19 -39 c80 -151 -13 -345 -193 -403 -21 -6 -25
-65 -5 -67 6 -1 17 -2 22 -4 6 -1 20 -3 33 -3 21 -2 23 -6 20 -44 -3 -43 -3
-43 -45 -46 -43 -3 -43 -3 -43 -43 0 -21 4 -39 9 -39 19 0 148 43 186 62 82
42 175 111 236 178 88 94 104 117 148 212 58 125 75 202 75 348 0 146 -17 223
-75 348 -44 95 -60 118 -148 212 -101 110 -220 182 -366 225 -75 21 -107 25
-224 24 -99 0 -155 -5 -206 -19z m-35 -171 c0 -8 4 -8 13 -1 6 6 33 10 60 10
l47 0 2 -61 2 -62 3 63 c3 54 7 62 23 62 16 0 20 -7 21 -37 l2 -38 6 35 c4 26
11 35 26 35 17 0 22 -10 31 -65 l12 -65 1 68 c1 60 3 67 21 67 18 0 20 -7 20
-60 0 -33 4 -60 10 -60 6 0 10 27 10 60 l0 60 33 0 c41 0 57 -15 58 -54 1 -20
3 -24 6 -11 2 11 6 30 9 43 3 13 12 22 24 22 14 0 21 -9 26 -37 11 -65 23 -73
24 -15 0 50 1 52 28 52 15 0 33 -5 40 -12 9 -9 12 -9 12 0 0 7 15 12 36 12 29
0 35 -3 32 -17 -2 -10 -10 -17 -16 -15 -15 3 -16 -20 0 -36 8 -8 8 -15 -2 -28
-12 -14 -12 -17 3 -25 27 -15 20 -36 -13 -41 -20 -3 -34 0 -39 10 -6 10 -10
11 -15 3 -12 -18 -97 -14 -112 7 -12 15 -13 15 -14 1 0 -14 -14 -17 -91 -18
-50 -1 -95 -4 -100 -6 -4 -3 -13 4 -19 15 -13 23 -30 27 -30 5 0 -19 -80 -21
-98 -3 -9 9 -12 9 -12 0 0 -16 -70 -16 -71 1 0 10 -2 10 -6 0 -2 -7 -13 -13
-24 -13 -17 0 -19 8 -19 80 0 73 2 80 20 80 11 0 20 -5 20 -11z m284 -191 c-4
-6 1 -8 15 -3 13 4 28 1 36 -5 10 -9 15 -9 15 -1 0 14 150 13 168 -1 9 -8 16
-8 24 0 35 35 78 -4 78 -71 0 -71 -38 -110 -70 -72 -11 13 -14 13 -26 -2 -12
-17 -13 -17 -27 1 -12 16 -15 17 -20 3 -4 -11 -20 -15 -69 -13 -59 1 -63 3
-67 26 l-4 25 -6 -25 c-7 -24 -10 -25 -86 -26 -101 -1 -115 9 -115 81 0 61 24
91 63 81 16 -4 28 1 40 15 14 16 21 17 37 9 11 -6 18 -16 14 -22z m-245 -15
c10 -17 10 -17 11 0 0 14 7 18 32 15 37 -4 50 -27 19 -35 -26 -7 -27 -18 -3
-32 15 -10 16 -12 1 -23 -25 -20 -26 -30 -1 -39 30 -11 23 -33 -11 -37 -18 -2
-29 2 -33 13 -6 15 -8 15 -24 0 -10 -9 -29 -15 -42 -13 -21 3 -23 8 -26 72 -2
38 -1 75 2 83 8 19 63 16 75 -4z"/>
<path d="M11545 8188 c-10 -26 -2 -43 12 -26 7 8 8 19 3 28 -8 12 -10 12 -15
-2z"/>
<path d="M11860 8160 c0 -16 5 -30 10 -30 6 0 10 14 10 30 0 17 -4 30 -10 30
-5 0 -10 -13 -10 -30z"/>
<path d="M12030 8151 c0 -23 5 -41 10 -41 6 0 10 15 10 34 0 19 -4 38 -10 41
-6 4 -10 -10 -10 -34z"/>
<path d="M11540 8126 c0 -8 5 -18 10 -21 6 -3 10 1 10 9 0 8 -4 18 -10 21 -5
3 -10 -1 -10 -9z"/>
<path d="M11778 7992 c-23 -4 -23 -18 -1 -31 17 -9 16 -11 -1 -30 -17 -19 -17
-21 -2 -27 24 -9 28 -2 24 48 -2 35 -6 43 -20 40z"/>
<path d="M11680 7944 c0 -25 4 -43 9 -40 4 3 6 17 3 31 -4 21 0 25 19 26 17 1
19 3 7 6 -10 2 -18 9 -18 14 0 5 -4 9 -10 9 -5 0 -10 -21 -10 -46z"/>
<path d="M11926 7975 c4 -8 10 -15 15 -15 5 0 9 7 9 15 0 8 -7 15 -15 15 -9 0
-12 -6 -9 -15z"/>
<path d="M12083 7945 c0 -27 2 -38 4 -22 2 15 2 37 0 50 -2 12 -4 0 -4 -28z"/>
<path d="M12027 7943 c-3 -5 -1 -17 4 -28 7 -17 8 -17 8 8 1 27 -4 34 -12 20z"/>
<path d="M11930 7930 c-12 -7 -12 -12 -3 -21 15 -15 26 -7 21 15 -2 11 -7 13
-18 6z"/>
<path d="M11513 7945 c0 -27 2 -38 4 -22 2 15 2 37 0 50 -2 12 -4 0 -4 -28z"/>
<path d="M7237 8254 c-16 -9 -27 -18 -24 -20 5 -5 77 24 77 31 0 9 -25 4 -53
-11z"/>
<path d="M7096 8145 c-11 -8 -17 -17 -14 -20 3 -3 16 3 29 14 27 23 14 28 -15
6z"/>
<path d="M6145 8081 c-33 -15 -78 -31 -100 -35 -50 -10 -92 -31 -128 -65 -28
-25 -29 -25 -58 -8 l-31 17 24 -37 c21 -34 23 -48 20 -135 -3 -114 9 -151 64
-203 35 -33 71 -52 80 -42 3 2 -15 25 -40 50 -55 57 -67 93 -69 211 -2 88 0
96 23 121 33 35 63 50 135 66 50 11 175 72 175 85 0 11 -41 0 -95 -25z"/>
<path d="M7916 8036 c67 -75 109 -163 128 -267 8 -46 27 -111 43 -144 35 -74
36 -151 4 -304 -12 -56 -24 -146 -27 -200 -7 -116 -23 -167 -71 -215 -41 -41
-30 -49 15 -11 50 42 65 87 74 225 4 71 16 157 28 200 11 41 23 113 26 160 6
78 4 92 -25 168 -17 45 -35 111 -41 146 -19 120 -85 233 -161 275 l-43 24 50
-57z"/>
<path d="M6899 8020 c-23 -49 -32 -122 -19 -154 22 -59 44 16 38 129 l-3 60
-16 -35z"/>
<path d="M7610 7991 c37 -37 53 -63 65 -105 19 -65 35 -73 35 -18 0 48 -45
121 -92 150 -57 36 -60 25 -8 -27z"/>
<path d="M908 7843 c7 -3 16 -2 19 1 4 3 -2 6 -13 5 -11 0 -14 -3 -6 -6z"/>
<path d="M1108 7843 c7 -3 16 -2 19 1 4 3 -2 6 -13 5 -11 0 -14 -3 -6 -6z"/>
<path d="M1188 7843 c6 -2 18 -2 25 0 6 3 1 5 -13 5 -14 0 -19 -2 -12 -5z"/>
<path d="M1268 7843 c6 -2 18 -2 25 0 6 3 1 5 -13 5 -14 0 -19 -2 -12 -5z"/>
<path d="M1072 7800 c0 -14 2 -19 5 -12 2 6 2 18 0 25 -3 6 -5 1 -5 -13z"/>
<path d="M982 7785 c0 -16 2 -22 5 -12 2 9 2 23 0 30 -3 6 -5 -1 -5 -18z"/>
<path d="M791 7784 c0 -11 3 -14 6 -6 3 7 2 16 -1 19 -3 4 -6 -2 -5 -13z"/>
<path d="M1412 7780 c0 -14 2 -19 5 -12 2 6 2 18 0 25 -3 6 -5 1 -5 -13z"/>
<path d="M1472 7755 c0 -16 2 -22 5 -12 2 9 2 23 0 30 -3 6 -5 -1 -5 -18z"/>
<path d="M1072 7750 c0 -14 2 -19 5 -12 2 6 2 18 0 25 -3 6 -5 1 -5 -13z"/>
<path d="M1642 7745 c0 -16 2 -22 5 -12 2 9 2 23 0 30 -3 6 -5 -1 -5 -18z"/>
<path d="M1010 7690 c0 -5 5 -10 11 -10 5 0 7 5 4 10 -3 6 -8 10 -11 10 -2 0
-4 -4 -4 -10z"/>
<path d="M1360 7696 c0 -2 7 -7 16 -10 8 -3 12 -2 9 4 -6 10 -25 14 -25 6z"/>
<path d="M341 7674 c0 -11 3 -14 6 -6 3 7 2 16 -1 19 -3 4 -6 -2 -5 -13z"/>
<path d="M898 7663 c6 -2 18 -2 25 0 6 3 1 5 -13 5 -14 0 -19 -2 -12 -5z"/>
<path d="M931 7604 c0 -11 3 -14 6 -6 3 7 2 16 -1 19 -3 4 -6 -2 -5 -13z"/>
<path d="M343 7560 c0 -25 2 -35 4 -22 2 12 2 32 0 45 -2 12 -4 2 -4 -23z"/>
<path d="M872 7580 c0 -14 2 -19 5 -12 2 6 2 18 0 25 -3 6 -5 1 -5 -13z"/>
<path d="M793 7545 c0 -27 2 -38 4 -22 2 15 2 37 0 50 -2 12 -4 0 -4 -28z"/>
<path d="M853 7540 c0 -25 2 -35 4 -22 2 12 2 32 0 45 -2 12 -4 2 -4 -23z"/>
<path d="M6476 7521 c4 -24 -1 -71 -11 -118 -14 -61 -16 -94 -9 -153 16 -147
11 -198 -27 -275 -20 -38 -46 -96 -59 -129 -22 -55 -27 -60 -84 -87 -34 -16
-65 -29 -71 -29 -5 0 -21 -9 -35 -20 l-25 -20 57 0 c45 0 58 -4 62 -17 13 -45
25 -140 31 -234 8 -133 33 -311 46 -324 12 -12 11 41 -1 165 -44 424 -45 440
-27 440 9 0 22 -12 29 -27 16 -34 58 -42 84 -16 17 17 17 18 -12 23 -43 7 -41
32 9 151 73 170 91 240 81 313 -5 33 -9 124 -9 201 0 88 -5 150 -12 168 -18
38 -24 34 -17 -12z"/>
<path d="M5437 7519 c-50 -55 -56 -102 -20 -172 22 -43 4 -57 -71 -57 -48 -1
-57 -3 -42 -11 27 -17 125 -14 179 5 63 21 74 21 130 -10 54 -28 87 -28 44 1
-31 20 -117 45 -154 45 -30 0 -73 64 -73 108 0 18 12 53 26 78 30 51 21 57
-19 13z"/>
<path d="M11780 7504 c-69 -30 -111 -94 -111 -172 -1 -60 14 -99 54 -140 138
-144 370 -16 333 183 -8 43 -68 113 -113 132 -42 17 -119 16 -163 -3z m220
-124 l0 -40 -135 0 -135 0 0 40 0 40 135 0 135 0 0 -40z m-2 -107 c-3 -34 -6
-37 -33 -37 -16 1 -76 1 -132 2 l-103 2 0 35 0 35 136 0 135 0 -3 -37z"/>
<path d="M7230 7421 c0 -21 54 -62 136 -104 64 -33 106 -64 149 -108 41 -43
79 -71 124 -92 36 -16 80 -45 98 -65 42 -45 54 -35 20 17 -19 29 -45 48 -101
74 -65 32 -80 44 -116 97 -48 70 -78 91 -171 120 -37 11 -81 31 -97 45 -32 26
-42 30 -42 16z"/>
<path d="M580 7156 c0 -2 8 -10 18 -17 15 -13 16 -12 3 4 -13 16 -21 21 -21
13z"/>
<path d="M923 7113 c9 -2 23 -2 30 0 6 3 -1 5 -18 5 -16 0 -22 -2 -12 -5z"/>
<path d="M1178 7113 c6 -2 18 -2 25 0 6 3 1 5 -13 5 -14 0 -19 -2 -12 -5z"/>
<path d="M1228 7113 c7 -3 16 -2 19 1 4 3 -2 6 -13 5 -11 0 -14 -3 -6 -6z"/>
<path d="M678 7053 c12 -2 30 -2 40 0 9 3 -1 5 -23 4 -22 0 -30 -2 -17 -4z"/>
<path d="M938 7053 c7 -3 16 -2 19 1 4 3 -2 6 -13 5 -11 0 -14 -3 -6 -6z"/>
<path d="M1438 7053 c12 -2 32 -2 45 0 12 2 2 4 -23 4 -25 0 -35 -2 -22 -4z"/>
<path d="M6588 6979 c-10 -17 -18 -43 -18 -58 0 -33 34 -135 56 -169 8 -13 13
-31 10 -39 -9 -22 9 -40 62 -63 44 -20 45 -20 39 -63 -3 -23 -14 -82 -25 -132
-71 -322 -172 -1090 -193 -1472 -9 -152 -9 -207 0 -216 27 -27 36 13 43 206 8
230 25 399 79 772 47 335 53 372 86 540 13 72 30 173 37 225 11 84 14 95 32
93 129 -15 200 -26 207 -33 5 -4 1 -49 -8 -99 -20 -106 -14 -131 10 -45 46
163 53 174 123 174 28 0 205 50 198 57 -2 2 -29 -3 -62 -12 -87 -23 -255 -19
-394 8 l-116 23 -70 69 c-61 60 -73 78 -84 123 -9 41 -10 59 0 82 18 44 9 66
-12 29z"/>
<path d="M7830 6870 c0 -5 5 -10 10 -10 6 0 10 5 10 10 0 6 -4 10 -10 10 -5 0
-10 -4 -10 -10z"/>
<path d="M5345 6856 c-22 -8 -60 -23 -85 -35 -41 -19 -42 -21 -17 -21 15 0 50
11 77 25 57 29 96 32 128 9 12 -8 22 -11 22 -5 0 15 -42 41 -65 40 -11 0 -38
-6 -60 -13z"/>
<path d="M7584 6860 c-12 -4 -49 -36 -84 -70 -34 -34 -80 -72 -101 -86 -22
-13 -39 -26 -39 -29 0 -9 37 9 100 50 36 23 70 45 77 49 7 4 36 -7 66 -24 54
-30 120 -40 132 -20 4 6 -7 10 -25 10 -37 0 -109 35 -117 57 -4 10 3 23 20 35
15 11 27 24 27 29 0 11 -28 11 -56 -1z"/>
<path d="M592 6840 c0 -14 2 -19 5 -12 2 6 2 18 0 25 -3 6 -5 1 -5 -13z"/>
<path d="M1351 6674 c0 -11 3 -14 6 -6 3 7 2 16 -1 19 -3 4 -6 -2 -5 -13z"/>
<path d="M6030 6394 c1 -16 5 -60 10 -99 50 -360 65 -557 100 -1283 4 -101 11
-186 14 -189 31 -31 10 569 -39 1102 -19 213 -62 475 -79 492 -3 4 -6 -7 -6
-23z"/>
<path d="M1223 5909 c-416 -54 -745 -342 -855 -750 -19 -71 -22 -109 -22 -244
0 -185 17 -264 89 -422 54 -114 113 -198 207 -289 178 -175 393 -268 644 -281
689 -35 1200 612 1008 1275 -112 386 -449 666 -857 711 -106 12 -124 12 -214
0z m484 -249 c4 -56 12 -80 27 -80 8 0 17 -10 21 -22 4 -15 8 -19 12 -10 3 8
-7 26 -21 41 -28 30 -33 50 -14 69 26 26 91 1 73 -28 -8 -13 -35 -13 -35 0 0
6 -5 10 -11 10 -6 0 3 -16 20 -35 36 -41 38 -56 14 -78 -23 -20 -93 -21 -93
-1 0 20 -27 18 -34 -3 -5 -12 -10 -13 -17 -6 -10 10 1 118 17 171 8 28 38 7
41 -28z m-592 0 c4 -7 11 -8 18 -2 7 6 36 10 65 10 44 0 52 -3 52 -19 0 -10 5
-21 10 -24 6 -4 10 5 10 19 0 25 3 26 53 26 64 0 79 -9 77 -46 -3 -39 1 -91 5
-79 2 6 9 36 15 68 l11 57 95 0 c93 0 114 -9 73 -30 -16 -9 -18 -14 -8 -26 9
-11 9 -21 1 -38 -9 -21 -8 -25 10 -29 30 -8 16 -32 -20 -35 l-32 -3 0 65 c0
37 -4 66 -10 66 -6 0 -10 -28 -10 -65 l0 -65 -30 0 c-18 0 -33 6 -36 15 -7 18
-34 20 -34 2 0 -8 -23 -13 -75 -15 -66 -2 -75 -1 -76 15 -1 17 -2 17 -6 1 -6
-25 -23 -22 -24 5 l-2 22 -4 -22 c-4 -22 -33 -33 -33 -13 0 6 -10 5 -25 -2
-20 -9 -28 -8 -43 5 -17 15 -19 15 -35 -1 -13 -13 -21 -14 -35 -6 -22 14 -30
133 -10 145 18 12 46 11 53 -1z m-365 -195 l0 -175 -30 0 -30 0 0 120 c0 118
0 120 -22 117 -17 -1 -24 4 -26 20 -4 29 53 93 84 93 l24 0 0 -175z m179 161
c20 -24 25 -103 9 -128 -13 -20 -13 -25 -2 -36 9 -8 14 -35 14 -72 0 -78 -19
-100 -90 -100 -62 0 -83 25 -78 92 3 38 6 43 28 43 22 0 25 -5 28 -37 2 -29 8
-38 21 -38 13 0 20 9 23 32 7 45 -1 66 -26 70 -28 4 -28 40 1 53 26 11 33 32
21 64 -7 19 -11 21 -22 11 -8 -6 -16 -21 -18 -33 -2 -16 -10 -22 -28 -22 -21
0 -26 5 -28 33 -2 19 4 44 13 58 13 20 23 24 69 24 33 0 58 -5 65 -14z m716
-146 c-10 -16 5 -33 18 -21 7 5 38 9 69 9 60 -1 85 -15 74 -43 -5 -13 -10 -14
-28 -4 -21 10 -20 9 5 -18 31 -33 35 -68 10 -81 -25 -12 -121 -14 -128 -2 -3
6 -15 5 -31 -2 -19 -9 -30 -9 -45 0 -16 10 -22 9 -40 -9 -20 -20 -23 -20 -31
-5 -6 11 -17 14 -34 10 -18 -5 -24 -2 -24 10 0 9 -7 16 -15 16 -8 0 -15 -7
-15 -15 0 -23 -60 -20 -61 3 -1 14 -2 15 -6 1 -3 -12 -17 -17 -58 -18 l-55 -1
0 65 c0 37 -4 65 -10 65 -6 0 -10 -28 -10 -64 l0 -63 -65 -2 c-52 -1 -65 2
-65 14 0 8 -7 15 -15 15 -8 0 -15 -7 -15 -15 0 -8 -7 -15 -16 -15 -12 0 -15 6
-11 23 3 12 9 43 12 68 4 25 10 52 15 59 13 21 40 3 40 -27 0 -15 5 -35 10
-43 7 -11 10 -2 10 32 l0 47 123 0 c67 0 129 -4 136 -9 10 -6 12 -21 7 -58 -4
-31 -3 -53 4 -57 5 -3 10 1 10 9 0 8 5 38 11 66 14 65 39 65 56 0 10 -41 11
-42 12 -13 1 31 22 63 42 63 6 0 19 -5 30 -11 17 -9 21 -7 26 10 4 15 13 21
35 21 17 0 27 -4 23 -10z m-248 -203 c-6 -16 16 -144 26 -154 4 -3 7 19 7 50
0 31 -4 59 -10 62 -5 3 -10 13 -10 21 0 10 14 14 55 14 36 0 55 -4 55 -12 0
-9 3 -9 12 0 18 18 46 14 60 -8 13 -20 13 -20 30 2 21 28 34 18 46 -37 5 -24
14 -39 21 -37 7 1 15 -7 18 -18 3 -11 9 -20 14 -20 15 0 10 10 -17 42 -28 34
-28 65 -2 82 23 14 52 -3 56 -33 4 -25 -13 -28 -27 -4 -5 10 -13 14 -17 10 -5
-4 4 -19 19 -33 29 -26 35 -65 15 -82 -21 -16 -98 -13 -98 4 0 8 -4 14 -10 14
-5 0 -10 -6 -10 -14 0 -11 -17 -14 -75 -13 l-75 0 -2 61 -2 61 -3 -61 -4 -62
-35 -4 c-27 -3 -38 0 -45 14 -12 22 -29 24 -29 3 0 -18 -65 -21 -75 -5 -4 7
-11 7 -18 2 -7 -5 -36 -10 -66 -11 -29 -1 -57 -4 -62 -6 -4 -3 -10 -1 -14 5
-4 6 -13 7 -23 1 -33 -18 -52 10 -52 76 0 71 10 83 65 80 l40 -3 3 -62 c4 -80
20 -80 24 1 l3 62 40 0 c36 0 40 -3 46 -30 l6 -30 4 30 c3 22 10 31 27 33 20
3 22 -1 23 -50 1 -50 2 -51 10 -18 4 19 11 47 15 63 4 18 13 27 26 27 13 0 18
-5 15 -13z m258 -287 c86 -30 177 -76 219 -110 55 -43 166 -159 166 -173 0
-34 -116 -150 -210 -209 -139 -87 -262 -121 -430 -120 -168 0 -308 43 -444
135 -84 58 -186 164 -186 194 0 24 131 148 213 201 67 44 168 85 282 115 11 3
83 4 160 3 128 -3 148 -6 230 -36z"/>
<path d="M1082 5595 c0 -27 2 -42 5 -32 2 9 11 17 19 17 8 0 14 7 14 15 0 8
-6 15 -14 15 -8 0 -17 8 -19 18 -3 9 -5 -5 -5 -33z"/>
<path d="M1482 5610 c0 -19 2 -27 5 -17 2 9 2 25 0 35 -3 9 -5 1 -5 -18z"/>
<path d="M1163 5590 c0 -25 2 -35 4 -22 2 12 2 32 0 45 -2 12 -4 2 -4 -23z"/>
<path d="M1350 5560 c0 -5 5 -10 10 -10 6 0 10 5 10 10 0 6 -4 10 -10 10 -5 0
-10 -4 -10 -10z"/>
<path d="M1170 5396 c0 -43 3 -56 15 -56 11 0 15 12 15 44 0 26 -6 48 -15 56
-13 11 -15 5 -15 -44z"/>
<path d="M1290 5427 c0 -7 5 -18 11 -24 8 -8 8 -13 0 -17 -16 -11 -13 -46 4
-46 11 0 15 12 15 50 0 38 -4 50 -15 50 -8 0 -15 -6 -15 -13z"/>
<path d="M1700 5425 c0 -8 5 -15 10 -15 6 0 10 -7 10 -15 0 -8 -4 -15 -10 -15
-14 0 -12 -28 2 -32 21 -7 35 33 24 65 -11 29 -36 37 -36 12z"/>
<path d="M1531 5390 c1 -25 3 -37 6 -27 2 9 11 17 19 17 8 0 14 7 14 16 0 8
-4 13 -9 9 -6 -3 -14 3 -20 12 -8 14 -10 8 -10 -27z"/>
<path d="M1613 5390 c0 -25 2 -35 4 -22 2 12 2 32 0 45 -2 12 -4 2 -4 -23z"/>
<path d="M1221 5224 c0 -11 3 -14 6 -6 3 7 2 16 -1 19 -3 4 -6 -2 -5 -13z"/>
<path d="M1080 5190 l0 -40 20 20 20 20 -20 20 -20 20 0 -40z"/>
<path d="M1550 5185 c0 -25 5 -45 10 -45 6 0 10 9 10 20 0 13 7 20 20 20 11 0
20 6 20 14 0 9 -7 12 -20 9 -14 -4 -20 0 -20 11 0 9 -4 16 -10 16 -5 0 -10
-20 -10 -45z"/>
<path d="M1223 5165 c0 -22 2 -30 4 -17 2 12 2 30 0 40 -3 9 -5 -1 -4 -23z"/>
<path d="M1370 4960 c-19 -3 -44 -11 -55 -18 -19 -11 -18 -11 8 -12 20 0 27
-5 27 -19 0 -11 5 -23 10 -26 23 -14 7 -22 -39 -17 -48 4 -96 -11 -86 -28 8
-13 -43 -60 -59 -54 -18 7 -31 -85 -21 -144 6 -37 9 -40 37 -38 25 1 35 -5 51
-31 10 -18 20 -41 22 -50 2 -10 4 -19 4 -21 3 -8 41 21 41 31 0 7 14 25 31 40
26 22 30 32 24 55 -3 15 -16 37 -27 50 -18 18 -19 22 -5 22 9 0 18 -4 22 -10
3 -5 12 -7 21 -3 11 4 13 14 9 34 -8 34 9 39 25 9 6 -12 22 -25 35 -30 18 -7
23 -14 18 -27 -6 -16 -5 -16 10 -4 9 7 17 19 17 26 0 7 7 18 15 25 13 10 17 7
29 -22 8 -19 23 -41 32 -49 15 -12 16 -12 10 8 -5 16 -1 28 16 45 12 12 23 27
24 33 3 25 5 27 18 16 20 -17 27 0 16 38 -12 44 -77 119 -122 142 -49 25 -113
37 -158 29z m-130 -190 c0 -5 9 -10 20 -10 12 0 20 -7 20 -16 0 -14 -7 -15
-42 -10 -49 8 -52 10 -45 31 7 16 47 21 47 5z"/>
<path d="M1176 4825 c-3 -8 -2 -15 3 -15 5 0 14 7 21 15 10 12 10 15 -3 15 -8
0 -17 -7 -21 -15z"/>
<path d="M1652 4700 c0 -19 2 -27 5 -17 2 9 2 25 0 35 -3 9 -5 1 -5 -18z"/>
<path d="M1615 4620 c-11 -5 -35 -14 -53 -20 -29 -11 -33 -17 -30 -44 3 -27 7
-31 35 -34 28 -3 34 2 59 43 28 48 24 69 -11 55z"/>
<path d="M1512 4483 c-27 -13 -40 -14 -71 -4 -53 15 -77 14 -97 -6 -15 -16
-15 -17 2 -24 41 -16 154 -1 190 26 29 20 13 26 -24 8z"/>
<path d="M6393 5485 c0 -22 2 -30 4 -17 2 12 2 30 0 40 -3 9 -5 -1 -4 -23z"/>
<path d="M6816 5463 c-16 -55 -60 -429 -72 -621 -6 -91 -5 -102 9 -102 14 0
17 11 17 65 0 35 11 153 25 262 35 273 46 479 21 396z"/>
<path d="M6403 5355 c0 -33 2 -45 4 -27 2 18 2 45 0 60 -2 15 -4 0 -4 -33z"/>
<path d="M6402 5115 c0 -16 2 -22 5 -12 2 9 2 23 0 30 -3 6 -5 -1 -5 -18z"/>
<path d="M5966 4482 c-3 -5 2 -16 11 -23 22 -19 835 -27 816 -9 -8 9 -122 15
-380 21 -202 4 -384 11 -404 15 -21 3 -39 2 -43 -4z"/>
<path d="M5940 4107 c0 -28 91 -37 365 -38 144 0 295 2 336 6 150 12 179 17
173 26 -4 7 -119 9 -312 7 -169 -2 -364 1 -434 6 -113 8 -128 7 -128 -7z"/>
<path d="M6803 3462 c-61 -20 -77 -32 -40 -32 32 0 107 29 107 41 0 11 -3 11
-67 -9z"/>
<path d="M9640 2872 c-91 -33 -191 -88 -245 -135 l-40 -34 33 -7 c17 -4 39
-17 47 -29 17 -24 20 -79 5 -107 -7 -13 -5 -27 6 -50 20 -40 12 -116 -15 -143
-35 -35 -129 -23 -145 18 -9 25 -7 114 3 134 7 12 6 32 -3 61 l-13 43 -41 -54
c-58 -77 -117 -200 -143 -299 -32 -120 -32 -309 0 -430 154 -581 831 -842
1323 -509 261 177 405 467 385 778 -12 181 -84 362 -200 501 l-62 75 -3 -50
c-2 -27 -8 -55 -13 -62 -6 -6 -32 -11 -59 -11 -39 1 -51 6 -59 22 -10 21 -10
21 -10 -1 -1 -20 -6 -23 -46 -23 -31 0 -47 5 -54 18 -10 16 -10 16 -11 0 0
-13 -8 -17 -33 -16 -19 1 -39 -2 -45 -5 -5 -4 -17 -4 -26 -1 -13 5 -16 22 -16
80 l0 74 60 -2 c47 -1 60 -5 60 -17 1 -14 2 -13 11 1 13 23 95 23 109 -1 8
-14 9 -14 10 3 0 14 5 17 23 13 12 -4 29 -2 37 4 12 8 9 15 -20 39 -44 38
-167 102 -247 129 -56 19 -85 21 -275 20 -206 0 -216 -1 -288 -27z m40 -182
c0 -11 5 -20 10 -20 6 0 10 9 10 20 0 18 7 20 95 19 77 -1 97 -4 105 -18 9
-15 9 -15 10 1 0 14 10 17 63 16 34 0 67 -5 74 -10 7 -5 14 -5 18 2 8 14 48
13 63 -2 16 -16 15 -113 -1 -126 -7 -6 -47 -11 -88 -10 -41 0 -78 0 -84 -2
-36 -9 -45 0 -45 48 0 34 -3 43 -10 32 -5 -8 -7 -29 -4 -47 6 -32 6 -32 -32
-30 -34 2 -39 5 -42 28 -2 21 -7 26 -22 22 -10 -3 -20 -15 -22 -27 -3 -18 -10
-21 -50 -22 -30 -1 -48 2 -48 10 0 8 -2 8 -8 0 -11 -17 -73 -26 -88 -13 -15
12 -20 129 -7 142 3 4 28 7 55 7 41 0 48 -3 48 -20z m-44 -182 c4 -6 0 -16 -9
-23 -20 -14 -22 -32 -6 -37 8 -3 8 -10 -2 -27 -12 -19 -12 -23 4 -32 28 -16
20 -31 -15 -27 l-33 3 -3 63 c-2 38 2 69 9 78 14 17 45 18 55 2z m116 3 c10 6
27 5 44 -1 19 -8 30 -7 41 1 10 9 20 9 39 0 17 -7 31 -8 43 -1 13 6 24 5 37
-5 13 -9 23 -10 31 -3 7 6 25 8 39 5 15 -2 39 -1 54 3 32 9 46 3 52 -25 4 -18
6 -17 16 6 10 26 13 27 76 23 36 -2 69 -4 73 -5 5 -1 10 -1 13 1 24 8 85 9 95
0 10 -8 19 -8 34 0 31 16 61 -18 61 -71 0 -52 -15 -79 -43 -79 -35 0 -47 19
-47 72 0 26 -4 48 -10 48 -6 0 -10 -27 -10 -60 0 -47 -3 -60 -15 -60 -12 0
-15 13 -15 60 0 33 -4 60 -10 60 -6 0 -10 -26 -10 -58 l0 -59 -90 -1 c-79 -2
-90 0 -91 15 -1 17 -2 17 -6 1 -5 -21 -23 -24 -23 -5 0 9 -2 9 -8 0 -9 -14
-122 -15 -139 -1 -9 7 -17 7 -25 1 -18 -14 -155 -16 -163 -3 -4 7 -11 7 -18 2
-17 -13 -88 -13 -104 -1 -8 7 -13 33 -13 65 0 43 4 56 22 68 14 10 27 12 37 6
9 -5 23 -4 33 1z m207 -193 c5 -14 10 -17 15 -10 13 21 35 13 43 -15 l6 -28 9
27 c8 24 14 27 41 24 l32 -3 3 -75 3 -76 -98 2 c-54 0 -104 5 -110 9 -8 5 -13
4 -13 -2 0 -20 -31 -11 -40 12 l-9 22 0 -22 c-1 -23 -25 -32 -36 -13 -4 6 -13
5 -25 -3 -15 -9 -25 -9 -38 -1 -12 8 -24 8 -40 1 -17 -8 -29 -8 -43 1 -13 8
-19 9 -19 1 0 -6 -14 -9 -32 -7 -32 3 -33 4 -36 57 -5 78 3 101 34 101 13 0
27 -7 31 -15 5 -14 8 -14 24 1 17 15 21 15 42 1 22 -14 26 -14 39 0 13 12 20
13 38 3 18 -10 24 -9 31 1 8 11 13 9 28 -8 l19 -22 6 22 c4 17 8 19 18 9 17
-17 25 -15 31 8 7 27 36 26 46 -2z m221 -13 c15 -14 18 -14 30 0 16 19 29 19
52 -2 21 -19 26 -111 6 -131 -15 -15 -55 -16 -63 -2 -5 8 -11 7 -21 -1 -8 -6
-25 -8 -39 -5 -23 6 -25 10 -25 71 0 50 4 66 18 74 22 14 23 14 42 -4z m76
-255 c-4 -28 -9 -57 -12 -65 -7 -18 -31 -20 -37 -2 -3 7 -65 -48 -149 -130
-79 -79 -149 -143 -156 -143 -7 0 -34 23 -61 50 -27 28 -53 50 -58 50 -5 0
-46 -38 -93 -85 -86 -86 -107 -98 -131 -69 -11 13 3 31 104 132 l117 117 60
-60 60 -60 127 127 c109 109 125 129 114 142 -15 17 -8 22 53 36 67 17 69 15
62 -40z m-48 -416 l-3 -279 -85 0 -85 0 -3 209 -2 210 82 77 c46 43 86 75 91
70 4 -4 6 -133 5 -287z m-430 -86 l-3 -193 -85 0 -85 0 -3 116 -3 115 78 77
c43 42 84 77 91 77 10 0 12 -42 10 -192z m220 -13 c0 -89 -3 -168 -7 -174 -5
-8 -35 -11 -92 -9 l-84 3 -3 169 c-1 106 1 173 8 180 7 7 20 0 43 -22 18 -18
36 -32 39 -32 4 0 23 16 44 35 25 24 40 32 45 24 4 -6 7 -85 7 -174z"/>
<path d="M9610 2667 c0 -7 5 -18 11 -24 8 -8 8 -13 0 -17 -16 -10 -13 -36 4
-36 11 0 15 12 15 45 0 33 -4 45 -15 45 -8 0 -15 -6 -15 -13z"/>
<path d="M9782 2660 c0 -14 2 -19 5 -12 2 6 2 18 0 25 -3 6 -5 1 -5 -13z"/>
<path d="M9940 2672 c0 -4 6 -14 12 -20 10 -10 10 -17 0 -32 -16 -26 -15 -30
3 -30 11 0 15 12 15 45 0 33 -4 45 -15 45 -8 0 -15 -4 -15 -8z"/>
<path d="M10010 2662 c0 -15 5 -19 20 -15 12 3 19 6 18 7 -2 1 -11 8 -20 15
-16 12 -18 11 -18 -7z"/>
<path d="M10090 2635 c0 -28 4 -44 10 -40 6 3 10 21 10 40 0 19 -4 37 -10 40
-6 4 -10 -12 -10 -40z"/>
<path d="M10012 2610 c0 -14 2 -19 5 -12 2 6 2 18 0 25 -3 6 -5 1 -5 -13z"/>
<path d="M10245 2482 c-16 -11 -15 -90 1 -96 11 -4 14 7 14 49 0 30 -1 55 -2
55 -2 0 -8 -4 -13 -8z"/>
<path d="M9690 2435 c0 -25 5 -45 10 -45 6 0 10 7 10 15 0 9 7 18 15 21 8 4
15 10 15 15 0 5 -7 9 -15 9 -8 0 -15 7 -15 15 0 8 -4 15 -10 15 -5 0 -10 -20
-10 -45z"/>
<path d="M9781 2464 c0 -11 3 -14 6 -6 3 7 2 16 -1 19 -3 4 -6 -2 -5 -13z"/>
<path d="M9860 2466 c0 -8 6 -16 13 -19 10 -4 10 -7 0 -18 -18 -18 -16 -39 2
-39 8 0 15 7 15 15 0 8 7 15 15 15 8 0 15 -7 15 -15 0 -8 5 -15 10 -15 17 0
11 15 -15 40 -14 13 -25 29 -25 37 0 7 -7 13 -15 13 -8 0 -15 -6 -15 -14z"/>
<path d="M9940 2455 c27 -29 30 -30 30 -10 0 8 -7 15 -15 15 -8 0 -15 5 -15
10 0 6 -5 10 -12 10 -6 0 -1 -11 12 -25z"/>
<path d="M10011 2435 c0 -43 2 -47 11 -27 6 12 17 22 25 22 7 0 13 5 13 10 0
6 -7 10 -15 10 -7 0 -19 8 -24 18 -8 13 -10 6 -10 -33z"/>
<path d="M10446 2464 c-9 -24 -7 -62 4 -69 6 -4 10 12 10 39 0 48 -4 56 -14
30z"/>
<path d="M9810 2419 c0 -5 5 -7 10 -4 6 3 10 8 10 11 0 2 -4 4 -10 4 -5 0 -10
-5 -10 -11z"/>
<path d="M9610 2266 c0 -8 6 -16 13 -19 10 -4 10 -7 0 -18 -18 -18 -16 -39 2
-39 11 0 15 12 15 45 0 33 -4 45 -15 45 -8 0 -15 -6 -15 -14z"/>
<path d="M9670 2235 c0 -25 5 -45 10 -45 6 0 10 7 10 15 0 9 7 18 15 21 8 4
15 10 15 15 0 5 -7 9 -15 9 -8 0 -15 7 -15 15 0 8 -4 15 -10 15 -5 0 -10 -20
-10 -45z"/>
<path d="M9763 2235 c0 -27 2 -38 4 -22 2 15 2 37 0 50 -2 12 -4 0 -4 -28z"/>
<path d="M9927 2273 c-11 -10 -8 -71 3 -78 6 -4 10 12 10 39 0 47 -2 51 -13
39z"/>
<path d="M10150 2240 l0 -40 20 20 20 20 -20 20 -20 20 0 -40z"/>
<path d="M10233 2235 c0 -27 2 -38 4 -22 2 15 2 37 0 50 -2 12 -4 0 -4 -28z"/>
<path d="M10203 2635 c0 -27 2 -38 4 -22 2 15 2 37 0 50 -2 12 -4 0 -4 -28z"/>
<path d="M10320 2668 c0 -12 7 -18 23 -17 15 0 17 2 7 6 -8 3 -18 11 -22 17
-5 7 -8 4 -8 -6z"/>
<path d="M10480 2635 c0 -28 4 -44 10 -40 6 3 10 21 10 40 0 19 -4 37 -10 40
-6 4 -10 -12 -10 -40z"/>
<path d="M10281 2654 c0 -11 3 -14 6 -6 3 7 2 16 -1 19 -3 4 -6 -2 -5 -13z"/>
<path d="M9350 2605 c0 -41 26 -49 36 -11 7 29 -1 46 -22 46 -9 0 -14 -11 -14
-35z"/>
<path d="M9350 2456 c0 -43 4 -56 15 -56 31 0 34 102 3 108 -15 3 -18 -5 -18
-52z"/>
<path d="M6155 1854 c-131 -21 -297 -91 -404 -171 l-64 -48 32 -3 31 -3 -2
-177 -3 -177 -30 0 -30 0 -5 130 c-3 72 -9 124 -13 118 -5 -7 -12 -13 -18 -13
-11 0 -12 62 -1 76 4 6 -11 -8 -32 -30 -89 -93 -161 -229 -202 -380 -34 -129
-34 -314 0 -436 44 -159 88 -246 183 -363 111 -136 292 -251 468 -299 112 -30
335 -30 446 0 298 81 539 307 633 594 73 224 55 474 -51 687 -114 230 -308
392 -561 467 -70 21 -112 27 -217 29 -71 2 -143 1 -160 -1z m344 -196 c-1 -7
-1 -22 0 -33 1 -18 2 -18 17 3 17 24 53 29 72 10 16 -16 16 -123 -1 -136 -19
-16 -95 -13 -101 4 -7 19 -26 18 -26 -1 0 -9 -9 -15 -24 -15 -14 0 -28 -4 -31
-10 -9 -15 -35 -12 -35 4 0 17 -27 29 -35 16 -8 -13 -52 -13 -60 0 -5 7 -11 8
-19 1 -6 -5 -60 -10 -119 -9 l-107 0 0 78 0 78 135 0 135 -1 0 -58 c0 -33 4
-59 10 -59 6 0 10 26 10 58 l0 59 49 1 c52 1 75 -14 69 -44 -5 -27 -27 -28
-37 -2 -8 18 -10 12 -9 -32 0 -30 3 -45 5 -32 2 12 11 22 18 22 20 0 35 32 35
74 0 32 3 36 25 36 15 0 25 -5 24 -12z m199 -20 c7 -7 13 -26 13 -42 1 -20 3
-24 6 -11 2 11 6 30 9 43 5 26 39 30 48 6 6 -16 8 -16 24 0 38 33 84 12 67
-31 -6 -17 -7 -17 -21 1 -8 11 -14 15 -14 9 0 -5 9 -18 19 -27 47 -43 25 -95
-40 -94 -25 0 -43 6 -46 14 -7 18 -23 18 -23 0 0 -12 -14 -14 -62 -13 l-63 2
-3 65 c-1 36 0 71 3 78 6 15 67 16 83 0z m-759 -23 c13 -12 17 -43 19 -150 l4
-135 -30 -30 c-32 -32 -64 -38 -106 -19 -41 19 -56 65 -56 173 0 108 16 161
52 176 31 13 97 5 117 -15z m159 -177 c10 -10 15 -10 20 -1 8 13 120 15 128 2
3 -5 14 -3 26 4 16 9 22 9 25 0 3 -10 9 -10 24 0 15 9 23 9 39 -1 12 -7 20 -8
20 -2 0 5 9 10 20 10 18 0 20 -7 22 -67 l1 -68 6 65 c5 51 10 66 24 68 14 3
17 -4 18 -35 l1 -38 8 33 c9 40 15 46 34 39 9 -4 19 -25 23 -49 l8 -43 5 45
c4 32 10 46 23 48 15 3 17 -5 17 -62 0 -37 4 -66 10 -66 6 0 10 22 10 49 0 27
3 56 6 65 8 21 53 20 76 -1 17 -15 19 -15 33 3 15 19 15 19 30 0 8 -11 16 -31
16 -45 1 -17 4 -12 8 14 5 35 10 40 34 43 16 2 35 -2 43 -9 10 -8 14 -8 14 0
0 6 16 11 35 11 19 0 35 -5 35 -10 0 -6 8 -5 20 2 15 10 25 10 38 2 23 -15 29
-54 8 -54 -9 0 -16 5 -16 12 0 6 -3 8 -7 5 -3 -4 3 -16 15 -27 30 -28 29 -74
-1 -87 -13 -6 -30 -7 -37 -3 -7 4 -24 3 -37 -3 -18 -8 -29 -8 -42 0 -10 6 -24
7 -33 2 -25 -14 -87 -3 -103 17 -13 17 -14 18 -15 2 0 -20 -13 -22 -134 -20
-55 0 -71 4 -79 18 -9 16 -11 16 -22 1 -11 -15 -23 -17 -119 -17 -17 -1 -32
-3 -34 -5 -3 -2 -13 0 -23 5 -12 7 -20 7 -24 0 -4 -7 -11 -7 -18 -2 -7 6 -39
6 -77 1 -50 -6 -67 -5 -74 5 -8 11 -14 10 -36 -2 -48 -28 -60 -13 -60 78 l0
80 28 0 c15 0 34 -6 40 -12z m457 -372 c39 -19 81 -46 93 -59 l24 -25 -31 -33
c-30 -34 -30 -34 -58 -17 -93 58 -137 73 -213 73 -98 0 -159 -24 -229 -89 -99
-93 -136 -234 -92 -351 62 -164 197 -254 366 -243 129 8 226 70 285 180 28 51
34 77 39 147 4 58 10 86 20 89 11 4 13 -14 9 -95 -3 -88 -7 -108 -36 -166 -35
-70 -115 -153 -181 -186 -153 -77 -351 -43 -477 83 -162 163 -162 445 0 606
91 91 201 132 331 125 65 -4 93 -11 150 -39z m182 -253 c19 -43 21 -53 11 -53
-5 0 -8 2 -8 5 -1 3 -7 23 -15 45 -18 50 -11 52 12 3z m-171 -49 c4 -14 2 -36
-5 -50 l-11 -24 -172 2 -173 3 -3 33 c-6 63 -10 62 182 62 l176 0 6 -26z m-6
-134 c6 -12 10 -33 8 -48 l-3 -27 -182 -3 -183 -2 0 43 c0 24 3 47 7 50 3 4
82 7 174 7 159 0 169 -1 179 -20z"/>
<path d="M6144 1609 c-3 -6 0 -15 7 -20 12 -7 12 -12 1 -29 -14 -23 -8 -40 14
-40 10 0 14 13 14 50 0 37 -4 50 -14 50 -8 0 -18 -5 -22 -11z"/>
<path d="M6223 1565 c0 -27 2 -38 4 -22 2 15 2 37 0 50 -2 12 -4 0 -4 -28z"/>
<path d="M6553 1570 c0 -25 2 -35 4 -22 2 12 2 32 0 45 -2 12 -4 2 -4 -23z"/>
<path d="M6650 1570 c0 -22 5 -40 10 -40 6 0 10 18 10 40 0 22 -4 40 -10 40
-5 0 -10 -18 -10 -40z"/>
<path d="M6780 1588 c0 -9 5 -20 11 -23 17 -11 20 0 4 21 -13 17 -14 17 -15 2z"/>
<path d="M6820 1541 c0 -5 5 -13 10 -16 6 -3 10 -2 10 4 0 5 -4 13 -10 16 -5
3 -10 2 -10 -4z"/>
<path d="M5846 1554 c-10 -27 -7 -184 5 -205 8 -16 13 -18 25 -8 10 9 14 38
14 120 0 100 -2 109 -19 109 -10 0 -22 -7 -25 -16z"/>
<path d="M6150 1400 c0 -5 5 -10 10 -10 6 0 10 -9 10 -20 0 -11 -4 -20 -10
-20 -5 0 -10 -7 -10 -15 0 -8 7 -15 15 -15 8 0 15 7 15 15 0 8 4 15 9 15 5 0
4 14 -2 30 -11 28 -37 42 -37 20z"/>
<path d="M6330 1395 c0 -10 9 -15 28 -14 16 1 20 3 10 6 -10 2 -18 9 -18 14 0
5 -4 9 -10 9 -5 0 -10 -7 -10 -15z"/>
<path d="M6650 1365 c0 -25 5 -45 10 -45 6 0 10 20 10 45 0 25 -4 45 -10 45
-5 0 -10 -20 -10 -45z"/>
<path d="M6820 1365 c0 -25 5 -45 10 -45 6 0 10 20 10 45 0 25 -4 45 -10 45
-5 0 -10 -20 -10 -45z"/>
<path d="M6910 1402 c0 -4 5 -13 11 -19 8 -8 7 -17 -2 -31 -19 -30 -5 -38 20
-13 20 20 20 23 5 46 -16 24 -34 33 -34 17z"/>
<path d="M6230 1386 c0 -2 7 -9 15 -16 12 -10 15 -10 15 4 0 9 -7 16 -15 16
-8 0 -15 -2 -15 -4z"/>
<path d="M6330 1335 c0 -8 5 -15 10 -15 6 0 10 7 10 15 0 8 -4 15 -10 15 -5 0
-10 -7 -10 -15z"/>
<path d="M6970 1336 c0 -9 5 -16 10 -16 6 0 10 4 10 9 0 6 -4 13 -10 16 -5 3
-10 -1 -10 -9z"/>
</g>
</svg>
