<?xml version="1.0"?>
<svg xmlns="http://www.w3.org/2000/svg" xmlns:xlink="http://www.w3.org/1999/xlink" xmlns:svgjs="http://svgjs.com/svgjs" version="1.1" width="512" height="512" x="0" y="0" viewBox="0 0 512 512" style="enable-background:new 0 0 512 512" xml:space="preserve" class=""><g><g xmlns="http://www.w3.org/2000/svg" id="Idea_1_"><g><path d="m256 61c-8.291 0-15-6.709-15-15v-31c0-8.291 6.709-15 15-15s15 6.709 15 15v31c0 8.291-6.709 15-15 15z" fill="#ffffff" data-original="#000000" style=""/></g><g><path d="m398.896 143.5c-4.146-7.178-1.685-16.348 5.493-20.493l25.972-15c7.148-4.175 16.333-1.714 20.493 5.493 4.146 7.178 1.685 16.348-5.493 20.493l-25.972 15c-7.153 4.132-16.345 1.691-20.493-5.493z" fill="#ffffff" data-original="#000000" style=""/></g><g><path d="m61.146 338.5c-4.146-7.178-1.685-16.348 5.493-20.493l25.972-15c7.119-4.16 16.333-1.699 20.493 5.493 4.146 7.178 1.685 16.348-5.493 20.493l-25.972 15c-7.152 4.132-16.344 1.691-20.493-5.493z" fill="#ffffff" data-original="#000000" style=""/></g><g><path d="m338.5 83.104c-7.178-4.146-9.639-13.315-5.493-20.493l15-25.972c4.146-7.222 13.315-9.653 20.493-5.493 7.178 4.146 9.639 13.315 5.493 20.493l-15 25.972c-4.156 7.197-13.354 9.617-20.493 5.493z" fill="#ffffff" data-original="#000000" style=""/></g><g><path d="m153.007 77.611-15-25.972c-4.146-7.178-1.685-16.348 5.493-20.493 7.134-4.16 16.348-1.729 20.493 5.493l15 25.972c4.146 7.178 1.685 16.348-5.493 20.493-7.153 4.132-16.344 1.691-20.493-5.493z" fill="#ffffff" data-original="#000000" style=""/></g><g><path d="m430.36 343.993-25.972-15c-7.178-4.146-9.639-13.315-5.493-20.493 4.146-7.192 13.33-9.653 20.493-5.493l25.972 15c7.178 4.146 9.639 13.315 5.493 20.493-4.156 7.197-13.354 9.617-20.493 5.493z" fill="#ffffff" data-original="#000000" style=""/></g><g><path d="m92.611 148.993-25.972-15c-7.178-4.146-9.639-13.315-5.493-20.493 4.131-7.207 13.301-9.668 20.493-5.493l25.972 15c7.178 4.146 9.639 13.315 5.493 20.493-4.156 7.197-13.354 9.617-20.493 5.493z" fill="#ffffff" data-original="#000000" style=""/></g><g><path d="m466 241h-30c-8.291 0-15-6.709-15-15s6.709-15 15-15h30c8.291 0 15 6.709 15 15s-6.709 15-15 15z" fill="#ffffff" data-original="#000000" style=""/></g><g><path d="m76 241h-30c-8.291 0-15-6.709-15-15s6.709-15 15-15h30c8.291 0 15 6.709 15 15s-6.709 15-15 15z" fill="#ffffff" data-original="#000000" style=""/></g><g><path d="m256 512c33.091 0 60-26.909 60-60h-119.899c.542 33.721 26.603 60 59.899 60z" fill="#ffffff" data-original="#000000" style=""/><path d="m256 91.016c-83.974-.151-126.505 69.091-133.359 113.685-5.449 35.464 2.871 70.825 23.438 99.565 27.391 38.269 42.955 77.437 47.748 116.733h124.222c4.548-40.505 19.649-79.459 45.632-113.687 17.871-23.568 27.319-51.678 27.319-81.312 0-56.639-44.23-134.821-135-134.984zm40.605 145.589-25.605 25.606v53.789c0 8.291-6.709 15-15 15s-15-6.709-15-15v-53.789l-25.605-25.605c-5.859-5.859-5.859-15.352 0-21.211s15.352-5.859 21.211 0l19.394 19.394 19.395-19.395c5.859-5.859 15.352-5.859 21.211 0s5.859 15.352-.001 21.211z" fill="#ffffff" data-original="#000000" style=""/></g></g></g></svg>
