<?xml version="1.0" encoding="UTF-8" standalone="no"?>
<svg
   xmlns:dc="http://purl.org/dc/elements/1.1/"
   xmlns:cc="http://creativecommons.org/ns#"
   xmlns:rdf="http://www.w3.org/1999/02/22-rdf-syntax-ns#"
   xmlns:svg="http://www.w3.org/2000/svg"
   xmlns="http://www.w3.org/2000/svg"
   xmlns:sodipodi="http://sodipodi.sourceforge.net/DTD/sodipodi-0.dtd"
   xmlns:inkscape="http://www.inkscape.org/namespaces/inkscape"
   version="1.1"
   id="Capa_1"
   x="0px"
   y="0px"
   viewBox="0 0 117 97"
   xml:space="preserve"
   sodipodi:docname="logo-HodingHands2.svg"
   inkscape:version="1.0.1 (3bc2e813f5, 2020-09-07)"
   width="117"
   height="97"><metadata
   id="metadata1239"><rdf:RDF><cc:Work
       rdf:about=""><dc:format>image/svg+xml</dc:format><dc:type
         rdf:resource="http://purl.org/dc/dcmitype/StillImage" /><dc:title></dc:title></cc:Work></rdf:RDF></metadata><defs
   id="defs1237" /><sodipodi:namedview
   pagecolor="#ffffff"
   bordercolor="#666666"
   borderopacity="1"
   objecttolerance="10"
   gridtolerance="10"
   guidetolerance="10"
   inkscape:pageopacity="0"
   inkscape:pageshadow="2"
   inkscape:window-width="1366"
   inkscape:window-height="745"
   id="namedview1235"
   showgrid="false"
   inkscape:zoom="0.79825726"
   inkscape:cx="-21.923191"
   inkscape:cy="263.48948"
   inkscape:window-x="-8"
   inkscape:window-y="-8"
   inkscape:window-maximized="1"
   inkscape:current-layer="g2544"
   showguides="true"
   inkscape:guide-bbox="true"
   inkscape:document-units="px"
   fit-margin-top="-13.4"
   inkscape:document-rotation="0"><sodipodi:guide
     position="-434.69695,-70.854767"
     orientation="1,0"
     id="guide1948" /><sodipodi:guide
     position="57.577855,332.17993"
     orientation="0,-1"
     id="guide1950" /><sodipodi:guide
     position="-37.581869,242.66327"
     orientation="0,-1"
     id="guide1952" /><sodipodi:guide
     position="469.48097,387.10035"
     orientation="1,0"
     id="guide1954" /></sodipodi:namedview>


















<g
   id="g2544"
   transform="translate(-62.108119,-179.14024)"><g
     id="g1265"
     transform="matrix(0.17975767,0,0,0.19433479,71.467956,176.13184)"
     style="fill:#ffffff;fill-opacity:1;stroke:#ffffff;stroke-width:1.15199;stroke-opacity:1"><g
       id="g1190"
       style="fill:#ffffff;fill-opacity:1;stroke:#ffffff;stroke-width:1.15199;stroke-opacity:1">
	<g
   id="g1188"
   style="fill:#ffffff;fill-opacity:1;stroke:#ffffff;stroke-width:1.15199;stroke-opacity:1">
		<path
   d="m 467.76,88.1 c -1.87,-1.87 -4.44,-2.931 -7.071,-2.931 -2.64,0 -5.21,1.061 -7.081,2.931 -1.859,1.859 -2.92,4.43 -2.92,7.07 0,2.63 1.061,5.211 2.92,7.071 1.87,1.86 4.44,2.93 7.081,2.93 2.63,0 5.201,-1.069 7.071,-2.93 1.86,-1.86 2.92,-4.44 2.92,-7.071 0,-2.64 -1.06,-5.211 -2.92,-7.07 z"
   id="path1186"
   style="fill:#ffffff;fill-opacity:1;stroke:#ffffff;stroke-width:1.15199;stroke-opacity:1" />
	</g>
</g><g
       id="g1196"
       style="fill:#ffffff;fill-opacity:1;stroke:#ffffff;stroke-width:1.15199;stroke-opacity:1">
	<g
   id="g1194"
   style="fill:#ffffff;fill-opacity:1;stroke:#ffffff;stroke-width:1.15199;stroke-opacity:1">
		<path
   d="m 238.071,323.626 c -1.869,-1.87 -4.44,-2.931 -7.071,-2.931 -2.64,0 -5.211,1.061 -7.081,2.931 -1.859,1.859 -2.92,4.43 -2.92,7.07 0,2.63 1.061,5.21 2.92,7.071 1.87,1.86 4.44,2.93 7.081,2.93 2.63,0 5.201,-1.069 7.071,-2.93 1.86,-1.86 2.92,-4.44 2.92,-7.071 10e-4,-2.64 -1.059,-5.211 -2.92,-7.07 z"
   id="path1192"
   style="fill:#ffffff;fill-opacity:1;stroke:#ffffff;stroke-width:1.15199;stroke-opacity:1" />
	</g>
</g><g
       id="g1202"
       style="fill:#ffffff;fill-opacity:1;stroke:#ffffff;stroke-width:1.15199;stroke-opacity:1">
	<g
   id="g1200"
   style="fill:#ffffff;fill-opacity:1;stroke:#ffffff;stroke-width:1.15199;stroke-opacity:1">
		<path
   d="m 491.983,121.313 c -2.73,-4.802 -8.838,-6.48 -13.637,-3.75 -4.801,2.73 -6.48,8.836 -3.749,13.637 29.706,52.238 20.738,118.438 -21.81,160.985 l -7.583,7.583 c -1.832,-4.807 -4.67,-9.316 -8.537,-13.182 L 333.911,183.831 c 6.72,-3.306 12.929,-7.717 18.38,-13.168 l 19.708,-19.709 c 3.905,-3.905 3.905,-10.238 0,-14.143 -3.906,-3.905 -10.237,-3.905 -14.144,0 l -19.708,19.709 c -9.259,9.258 -21.568,14.357 -34.661,14.357 h -39.397 c -2.652,0 -5.195,1.054 -7.072,2.929 l -30.16,30.16 c -8.956,8.957 -23.529,8.957 -32.485,0 -8.957,-8.956 -8.957,-23.529 0,-32.485 l 68.856,-68.855 C 305.307,60.546 371,51.292 422.975,80.122 c 4.83,2.677 10.918,0.936 13.597,-3.895 2.679,-4.83 0.935,-10.918 -3.895,-13.597 C 404.009,46.731 370.233,40.368 337.565,44.719 306.993,48.79 279.01,61.591 256.072,81.903 227.893,56.922 192.02,43.261 154.04,43.261 112.894,43.261 74.212,59.284 45.117,88.378 16.022,117.472 0,156.157 0,197.302 0,238.448 16.023,277.13 45.117,306.225 l 3.769,3.769 c 0.656,0.655 1.384,1.191 2.153,1.626 0.669,8.652 4.294,17.116 10.897,23.718 7.349,7.348 16.997,11.02 26.648,11.02 0.501,0 1.003,-0.016 1.504,-0.036 -0.02,0.506 -0.037,1.012 -0.037,1.521 0,10.066 3.92,19.53 11.038,26.648 7.349,7.348 16.997,11.021 26.648,11.02 0.501,0 1.003,-0.016 1.504,-0.036 -0.02,0.506 -0.037,1.012 -0.037,1.521 0,10.066 3.92,19.53 11.039,26.648 7.348,7.347 16.998,11.02 26.648,11.02 0.507,0 1.014,-0.016 1.521,-0.036 -0.406,10.151 3.251,20.437 10.984,28.171 7.119,7.118 16.583,11.038 26.648,11.038 10.067,0 19.531,-3.92 26.648,-11.038 l 13.977,-13.978 18.879,18.877 c 7.118,7.119 16.582,11.039 26.648,11.039 10.066,0 19.53,-3.92 26.648,-11.038 7.826,-7.826 11.482,-18.267 10.972,-28.537 0.628,0.031 1.258,0.049 1.887,0.049 9.651,0 19.303,-3.673 26.65,-11.021 7.729,-7.729 11.386,-18.007 10.984,-28.153 0.506,0.02 1.012,0.037 1.521,0.037 10.066,0 19.53,-3.92 26.648,-11.038 7.729,-7.729 11.386,-18.007 10.984,-28.153 0.506,0.02 1.012,0.037 1.521,0.037 10.066,0 19.53,-3.92 26.648,-11.038 3.615,-3.615 6.337,-7.791 8.173,-12.248 0.973,-0.474 1.888,-1.105 2.697,-1.913 l 19.394,-19.394 c 48.901,-48.891 59.203,-124.973 25.06,-185.014 z M 88.585,326.374 c -4.724,0 -9.165,-1.839 -12.506,-5.18 -3.34,-3.34 -5.18,-7.781 -5.18,-12.505 0,-4.723 1.839,-9.165 5.18,-12.505 L 93.313,278.95 c 3.34,-3.341 7.782,-5.18 12.506,-5.18 4.723,0 9.165,1.839 12.505,5.18 6.896,6.896 6.896,18.115 0,25.01 l -17.234,17.235 c -3.34,3.339 -7.78,5.179 -12.505,5.179 z m 26.65,33.975 c -3.341,-3.34 -5.18,-7.782 -5.18,-12.505 0,-4.724 1.839,-9.165 5.18,-12.505 l 17.235,-17.235 c 0,0 0,0 0,-10e-4 3.34,-3.34 7.781,-5.18 12.505,-5.18 4.723,0 9.165,1.839 12.505,5.18 6.896,6.896 6.896,18.115 0,25.01 l -17.234,17.235 c -6.897,6.895 -18.119,6.895 -25.011,10e-4 z m 39.153,39.153 c -3.341,-3.34 -5.18,-7.782 -5.18,-12.505 0,-4.724 1.839,-9.165 5.18,-12.505 l 17.235,-17.235 c 0,0 0,0 0,-0.001 3.34,-3.34 7.781,-5.18 12.505,-5.18 4.724,0 9.165,1.839 12.505,5.18 6.896,6.897 6.896,18.116 0,25.011 l -17.235,17.235 c -6.895,6.896 -18.114,6.896 -25.01,0 z m 81.399,21.92 -17.235,17.236 c -3.34,3.34 -7.781,5.18 -12.505,5.18 -4.723,0 -9.165,-1.839 -12.505,-5.18 -6.896,-6.897 -6.896,-18.116 0,-25.011 l 17.235,-17.235 c 0,0 0,0 0,-10e-4 3.34,-3.34 7.781,-5.18 12.505,-5.18 4.723,0 9.165,1.839 12.505,5.18 3.341,3.34 5.18,7.782 5.18,12.505 10e-4,4.726 -1.839,9.166 -5.18,12.506 z m 186.736,-95.683 c -3.34,3.341 -7.782,5.18 -12.505,5.18 -4.724,0 -9.165,-1.839 -12.505,-5.18 l -41.627,-41.627 c -0.002,-0.002 -0.003,-0.003 -0.005,-0.005 l -39.15,-39.15 c -3.906,-3.905 -10.237,-3.905 -14.144,0 -3.905,3.905 -3.905,10.238 0,14.143 l 80.782,80.78 c 6.896,6.897 6.896,18.116 0,25.011 -3.34,3.341 -7.782,5.18 -12.505,5.18 -4.724,0 -9.165,-1.839 -12.505,-5.18 L 277.577,284.11 c -3.906,-3.904 -10.237,-3.904 -14.144,0 -3.905,3.905 -3.905,10.238 0,14.144 l 39.146,39.145 c 0.003,0.003 0.006,0.007 0.009,0.01 l 41.628,41.626 c 6.896,6.897 6.896,18.117 10e-4,25.012 -6.897,6.896 -18.118,6.896 -25.011,0 l -41.628,-41.628 c -0.77,-0.769 -1.635,-1.381 -2.556,-1.847 l -11.873,-11.873 c -3.906,-3.904 -10.237,-3.904 -14.144,0 -3.905,3.905 -3.905,10.238 0,14.144 l 55.702,55.7 c 6.896,6.897 6.896,18.116 0,25.011 -3.34,3.341 -7.782,5.18 -12.505,5.18 -4.724,0 -9.165,-1.839 -12.505,-5.18 l -21.196,-21.195 c 1.615,-4.237 2.469,-8.774 2.469,-13.444 0,-10.066 -3.92,-19.53 -11.038,-26.648 -7.119,-7.118 -16.583,-11.038 -26.648,-11.038 -0.509,0 -1.015,0.017 -1.521,0.037 0.401,-10.146 -3.255,-20.424 -10.984,-28.153 -7.119,-7.118 -16.583,-11.038 -26.648,-11.038 -0.509,0 -1.015,0.017 -1.521,0.037 0.402,-10.146 -3.255,-20.424 -10.984,-28.153 -7.119,-7.118 -16.583,-11.038 -26.648,-11.038 -0.509,0 -1.015,0.017 -1.521,0.037 0.402,-10.146 -3.255,-20.424 -10.984,-28.153 -14.694,-14.694 -38.605,-14.693 -53.299,0 L 61.94,282.039 c -2.174,2.174 -4.017,4.553 -5.549,7.071 C 32.9,264.159 20.006,231.722 20.006,197.3 c 0,-35.803 13.942,-69.464 39.26,-94.78 25.316,-25.316 58.978,-39.259 94.78,-39.259 32.536,0 63.302,11.516 87.644,32.618 l -61.457,61.457 c -8.116,8.117 -12.586,18.908 -12.586,30.386 0,11.479 4.47,22.27 12.586,30.387 8.378,8.377 19.383,12.566 30.387,12.566 11.004,0 22.009,-4.188 30.387,-12.566 l 27.232,-27.232 h 35.253 c 2.911,0 5.79,-0.199 8.634,-0.552 l 110.403,110.401 c 6.889,6.899 6.889,18.119 -0.006,25.013 z"
   id="path1198"
   style="fill:#ffffff;fill-opacity:1;stroke:#ffffff;stroke-width:1.15199;stroke-opacity:1" />
	</g>
</g><g
       id="g1204"
       style="fill:#ffffff;fill-opacity:1;stroke:#ffffff;stroke-width:1.15199;stroke-opacity:1">
</g><g
       id="g1206"
       style="fill:#ffffff;fill-opacity:1;stroke:#ffffff;stroke-width:1.15199;stroke-opacity:1">
</g><g
       id="g1208"
       style="fill:#ffffff;fill-opacity:1;stroke:#ffffff;stroke-width:1.15199;stroke-opacity:1">
</g><g
       id="g1210"
       style="fill:#ffffff;fill-opacity:1;stroke:#ffffff;stroke-width:1.15199;stroke-opacity:1">
</g><g
       id="g1212"
       style="fill:#ffffff;fill-opacity:1;stroke:#ffffff;stroke-width:1.15199;stroke-opacity:1">
</g><g
       id="g1214"
       style="fill:#ffffff;fill-opacity:1;stroke:#ffffff;stroke-width:1.15199;stroke-opacity:1">
</g><g
       id="g1216"
       style="fill:#ffffff;fill-opacity:1;stroke:#ffffff;stroke-width:1.15199;stroke-opacity:1">
</g><g
       id="g1218"
       style="fill:#ffffff;fill-opacity:1;stroke:#ffffff;stroke-width:1.15199;stroke-opacity:1">
</g><g
       id="g1220"
       style="fill:#ffffff;fill-opacity:1;stroke:#ffffff;stroke-width:1.15199;stroke-opacity:1">
</g><g
       id="g1222"
       style="fill:#ffffff;fill-opacity:1;stroke:#ffffff;stroke-width:1.15199;stroke-opacity:1">
</g><g
       id="g1224"
       style="fill:#ffffff;fill-opacity:1;stroke:#ffffff;stroke-width:1.15199;stroke-opacity:1">
</g><g
       id="g1226"
       style="fill:#ffffff;fill-opacity:1;stroke:#ffffff;stroke-width:1.15199;stroke-opacity:1">
</g><g
       id="g1228"
       style="fill:#ffffff;fill-opacity:1;stroke:#ffffff;stroke-width:1.15199;stroke-opacity:1">
</g><g
       id="g1230"
       style="fill:#ffffff;fill-opacity:1;stroke:#ffffff;stroke-width:1.15199;stroke-opacity:1">
</g><g
       id="g1232"
       style="fill:#ffffff;fill-opacity:1;stroke:#ffffff;stroke-width:1.15199;stroke-opacity:1">
</g></g><text
     xml:space="preserve"
     style="font-style:normal;font-weight:normal;font-size:40px;line-height:1.25;font-family:sans-serif;fill:#000000;fill-opacity:1;stroke:none"
     x="-232.28317"
     y="216.72211"
     id="text916"><tspan
       sodipodi:role="line"
       id="tspan914"
       x="-232.28317"
       y="216.72211" /></text></g></svg>
