<?xml version="1.0"?>
<svg xmlns="http://www.w3.org/2000/svg" xmlns:xlink="http://www.w3.org/1999/xlink" xmlns:svgjs="http://svgjs.com/svgjs" version="1.1" width="512" height="512" x="0" y="0" viewBox="0 0 512 512" style="enable-background:new 0 0 512 512" xml:space="preserve" class=""><g><g xmlns="http://www.w3.org/2000/svg"><path d="m236.605 269.184c-5.625 5.625-15.586 5.625-21.211 0l-23.042-23.042-21.211 21.211 54.859 54.858 114.858-114.858-21.226-21.211z" fill="#ffffff" data-original="#000000" style="" class=""/><path d="m256 0c-140.61 0-256 115.39-256 256s115.39 256 256 256 256-115.39 256-256-115.39-256-256-256zm116.675 217.958-136.07 136.069c-5.859 5.859-15.352 5.859-21.211 0l-76.069-76.069c-5.859-5.859-5.859-15.352 0-21.211l42.422-42.422c5.859-5.859 15.352-5.859 21.211 0l23.042 23.042 83.027-83.042c5.859-5.859 15.352-5.859 21.211 0l42.437 42.422c5.859 5.859 5.856 15.355 0 21.211z" fill="#ffffff" data-original="#000000" style="" class=""/></g></g></svg>
